<svg width="321" height="259" viewBox="0 0 321 259" fill="none" xmlns="http://www.w3.org/2000/svg">
<path d="M34 30H20C18.9 30 18 30.9 18 32V46C18 47.1 18.9 48 20 48H34C35.1 48 36 47.1 36 46V32C36 30.9 35.1 30 34 30ZM34 46H20V32H34V46ZM29 39L26 42.72L24 40L21 44H33L29 39Z" fill="#818181"/>
<path d="M29.25 109.26L29.17 109.22L29.16 109.24C28.46 109.09 27.74 109 27 109C21.48 109 17 113.48 17 119C17 124.52 21.48 129 27 129C32.52 129 37 124.52 37 119C37 114.25 33.69 110.28 29.25 109.26ZM34.41 116H26.42L29.13 111.3C31.53 111.96 33.48 113.72 34.41 116ZM28.1 111.08L24.12 118L21.4 113.3C22.8908 111.826 24.9032 110.999 27 111C27.37 111 27.74 111.03 28.1 111.08ZM20.7 114.09L23.54 119L24.69 121H19.26C19.1 120.36 19 119.69 19 119C19 117.15 19.64 115.45 20.7 114.09ZM19.59 122H27.57L24.86 126.7C23.6816 126.37 22.5942 125.775 21.6809 124.96C20.7675 124.146 20.0524 123.133 19.59 122ZM25.9 126.91L29.89 120L32.61 124.7C31.1142 126.173 29.0993 126.999 27 127C26.62 127 26.26 126.96 25.9 126.91ZM33.3 123.91L29.3 117H34.73C34.9 117.64 35 118.31 35 119C35 120.85 34.36 122.55 33.3 123.91Z" fill="#818181"/>
<path d="M19 198H21V201H33V198H35V201C35 202.1 34.1 203 33 203H21C19.9 203 19 202.1 19 201V198ZM23.41 193.41L26 190.83V199H28V190.83L30.59 193.42L32 192L27 187L22 192L23.41 193.41Z" fill="#818181"/>
<path d="M0.5 16C0.5 7.43959 7.43959 0.5 16 0.5H305C313.56 0.5 320.5 7.43959 320.5 16V218C320.5 226.56 313.56 233.5 305 233.5H16C7.4396 233.5 0.5 226.56 0.5 218V16Z" stroke="#818181"/>
<path d="M57.9297 34H56.4297V22.625H57.9297V34Z" fill="#818181"/>
<path d="M62.6172 22.625L66.3359 31.9062L70.0547 22.625H72V34H70.5V29.5703L70.6406 24.7891L66.9062 34H65.7578L62.0312 24.8125L62.1797 29.5703V34H60.6797V22.625H62.6172Z" fill="#818181"/>
<path d="M83.0469 32.5078C82.6615 33.0599 82.1224 33.474 81.4297 33.75C80.7422 34.0208 79.9401 34.1562 79.0234 34.1562C78.0964 34.1562 77.2734 33.9401 76.5547 33.5078C75.8359 33.0703 75.2786 32.4505 74.8828 31.6484C74.4922 30.8464 74.2917 29.9167 74.2812 28.8594V27.8672C74.2812 26.1536 74.6797 24.8255 75.4766 23.8828C76.2786 22.9401 77.4036 22.4688 78.8516 22.4688C80.0391 22.4688 80.9948 22.7734 81.7188 23.3828C82.4427 23.987 82.8854 24.8464 83.0469 25.9609H81.5469C81.2656 24.4557 80.3698 23.7031 78.8594 23.7031C77.8542 23.7031 77.0911 24.0573 76.5703 24.7656C76.0547 25.4688 75.7943 26.4896 75.7891 27.8281V28.7578C75.7891 30.0339 76.0807 31.0495 76.6641 31.8047C77.2474 32.5547 78.0365 32.9297 79.0312 32.9297C79.5938 32.9297 80.0859 32.8672 80.5078 32.7422C80.9297 32.6172 81.2786 32.4062 81.5547 32.1094V29.5547H78.9219V28.3359H83.0469V32.5078Z" fill="#818181"/>
<path d="M91.4219 35.1797H84.2656V34H91.4219V35.1797Z" fill="#818181"/>
<path d="M99.5312 29.1484C99.5312 30.8411 99.2422 32.099 98.6641 32.9219C98.0859 33.7448 97.1823 34.1562 95.9531 34.1562C94.7396 34.1562 93.8411 33.7552 93.2578 32.9531C92.6745 32.1458 92.3724 30.9427 92.3516 29.3438V27.4141C92.3516 25.7422 92.6406 24.5 93.2188 23.6875C93.7969 22.875 94.7031 22.4688 95.9375 22.4688C97.1615 22.4688 98.0625 22.862 98.6406 23.6484C99.2188 24.4297 99.5156 25.638 99.5312 27.2734V29.1484ZM98.0859 27.1719C98.0859 25.9479 97.9141 25.0573 97.5703 24.5C97.2266 23.9375 96.6823 23.6562 95.9375 23.6562C95.1979 23.6562 94.6589 23.9349 94.3203 24.4922C93.9818 25.0495 93.8073 25.9062 93.7969 27.0625V29.375C93.7969 30.6042 93.974 31.513 94.3281 32.1016C94.6875 32.6849 95.2292 32.9766 95.9531 32.9766C96.6667 32.9766 97.1953 32.7005 97.5391 32.1484C97.888 31.5964 98.0703 30.7266 98.0859 29.5391V27.1719Z" fill="#818181"/>
<path d="M107.484 30.1797H109.062V31.3594H107.484V34H106.031V31.3594H100.852V30.5078L105.945 22.625H107.484V30.1797ZM102.492 30.1797H106.031V24.6016L105.859 24.9141L102.492 30.1797Z" fill="#818181"/>
<path d="M115.117 34H113.664V24.3672L110.75 25.4375V24.125L114.891 22.5703H115.117V34Z" fill="#818181"/>
<path d="M124.891 29C124.589 29.3594 124.227 29.6484 123.805 29.8672C123.388 30.0859 122.93 30.1953 122.43 30.1953C121.773 30.1953 121.201 30.0339 120.711 29.7109C120.227 29.388 119.852 28.9349 119.586 28.3516C119.32 27.763 119.188 27.1146 119.188 26.4062C119.188 25.6458 119.331 24.9609 119.617 24.3516C119.909 23.7422 120.32 23.276 120.852 22.9531C121.383 22.6302 122.003 22.4688 122.711 22.4688C123.836 22.4688 124.721 22.8906 125.367 23.7344C126.018 24.5729 126.344 25.7188 126.344 27.1719V27.5938C126.344 29.8073 125.906 31.4245 125.031 32.4453C124.156 33.4609 122.836 33.9818 121.07 34.0078H120.789V32.7891H121.094C122.286 32.7682 123.203 32.4583 123.844 31.8594C124.484 31.2552 124.833 30.3021 124.891 29ZM122.664 29C123.148 29 123.594 28.8516 124 28.5547C124.411 28.2578 124.711 27.8906 124.898 27.4531V26.875C124.898 25.9271 124.693 25.1562 124.281 24.5625C123.87 23.9688 123.349 23.6719 122.719 23.6719C122.083 23.6719 121.573 23.9167 121.188 24.4062C120.802 24.8906 120.609 25.5312 120.609 26.3281C120.609 27.1042 120.794 27.7448 121.164 28.25C121.539 28.75 122.039 29 122.664 29Z" fill="#818181"/>
<path d="M128.516 33.2422C128.516 32.9922 128.589 32.7839 128.734 32.6172C128.885 32.4505 129.109 32.3672 129.406 32.3672C129.703 32.3672 129.927 32.4505 130.078 32.6172C130.234 32.7839 130.312 32.9922 130.312 33.2422C130.312 33.4818 130.234 33.6823 130.078 33.8438C129.927 34.0052 129.703 34.0859 129.406 34.0859C129.109 34.0859 128.885 34.0052 128.734 33.8438C128.589 33.6823 128.516 33.4818 128.516 33.2422Z" fill="#818181"/>
<path d="M141.672 34H140.164V28.7422H134.43V34H132.93V22.625H134.43V27.5156H140.164V22.625H141.672V34Z" fill="#818181"/>
<path d="M150.766 28.7422H145.836V32.7734H151.562V34H144.336V22.625H151.484V23.8594H145.836V27.5156H150.766V28.7422Z" fill="#818181"/>
<path d="M155.039 34H153.539V22.625H155.039V34Z" fill="#818181"/>
<path d="M166.156 30.3906C166.016 31.5938 165.57 32.5234 164.82 33.1797C164.076 33.8307 163.083 34.1562 161.844 34.1562C160.5 34.1562 159.422 33.6745 158.609 32.7109C157.802 31.7474 157.398 30.4583 157.398 28.8438V27.75C157.398 26.6927 157.586 25.763 157.961 24.9609C158.341 24.1589 158.878 23.5443 159.57 23.1172C160.263 22.6849 161.065 22.4688 161.977 22.4688C163.185 22.4688 164.154 22.8073 164.883 23.4844C165.612 24.1562 166.036 25.0885 166.156 26.2812H164.648C164.518 25.375 164.234 24.7188 163.797 24.3125C163.365 23.9062 162.758 23.7031 161.977 23.7031C161.018 23.7031 160.266 24.0573 159.719 24.7656C159.177 25.474 158.906 26.4818 158.906 27.7891V28.8906C158.906 30.125 159.164 31.1068 159.68 31.8359C160.195 32.5651 160.917 32.9297 161.844 32.9297C162.677 32.9297 163.315 32.7422 163.758 32.3672C164.206 31.987 164.503 31.3281 164.648 30.3906H166.156Z" fill="#818181"/>
<path d="M59.9834 56H58.7119V47.5713L56.1621 48.5078V47.3594L59.7852 45.999H59.9834V56Z" fill="#818181"/>
<path d="M70.21 56H63.6885V55.0908L67.1338 51.2627C67.6442 50.6839 67.9951 50.2145 68.1865 49.8545C68.3825 49.4899 68.4805 49.1139 68.4805 48.7266C68.4805 48.207 68.3232 47.7809 68.0088 47.4482C67.6943 47.1156 67.2751 46.9492 66.751 46.9492C66.1221 46.9492 65.6322 47.1292 65.2812 47.4893C64.9349 47.8447 64.7617 48.3415 64.7617 48.9795H63.4971C63.4971 48.0635 63.791 47.3229 64.3789 46.7578C64.9714 46.1927 65.762 45.9102 66.751 45.9102C67.6761 45.9102 68.4076 46.154 68.9453 46.6416C69.4831 47.1247 69.752 47.7695 69.752 48.5762C69.752 49.556 69.1276 50.7227 67.8789 52.0762L65.2129 54.9678H70.21V56Z" fill="#818181"/>
<path d="M71.707 55.3369C71.707 55.1182 71.7708 54.9359 71.8984 54.79C72.0306 54.6442 72.2266 54.5713 72.4863 54.5713C72.7461 54.5713 72.9421 54.6442 73.0742 54.79C73.2109 54.9359 73.2793 55.1182 73.2793 55.3369C73.2793 55.5465 73.2109 55.722 73.0742 55.8633C72.9421 56.0046 72.7461 56.0752 72.4863 56.0752C72.2266 56.0752 72.0306 56.0046 71.8984 55.8633C71.7708 55.722 71.707 55.5465 71.707 55.3369Z" fill="#818181"/>
<path d="M81.7627 56H75.2412V55.0908L78.6865 51.2627C79.1969 50.6839 79.5479 50.2145 79.7393 49.8545C79.9352 49.4899 80.0332 49.1139 80.0332 48.7266C80.0332 48.207 79.876 47.7809 79.5615 47.4482C79.2471 47.1156 78.8278 46.9492 78.3037 46.9492C77.6748 46.9492 77.1849 47.1292 76.834 47.4893C76.4876 47.8447 76.3145 48.3415 76.3145 48.9795H75.0498C75.0498 48.0635 75.3438 47.3229 75.9316 46.7578C76.5241 46.1927 77.3148 45.9102 78.3037 45.9102C79.2288 45.9102 79.9603 46.154 80.498 46.6416C81.0358 47.1247 81.3047 47.7695 81.3047 48.5762C81.3047 49.556 80.6803 50.7227 79.4316 52.0762L76.7656 54.9678H81.7627V56Z" fill="#818181"/>
<path d="M88.5986 46.0469L91.8525 54.168L95.1064 46.0469H96.8086V56H95.4961V52.124L95.6191 47.9404L92.3516 56H91.3467L88.0859 47.9609L88.2158 52.124V56H86.9033V46.0469H88.5986Z" fill="#818181"/>
<path d="M100.438 52.1035V56H99.126V46.0469H102.797C103.886 46.0469 104.738 46.3249 105.354 46.8809C105.973 47.4368 106.283 48.1729 106.283 49.0889C106.283 50.055 105.98 50.8001 105.374 51.3242C104.772 51.8438 103.909 52.1035 102.783 52.1035H100.438ZM100.438 51.0303H102.797C103.499 51.0303 104.036 50.8662 104.41 50.5381C104.784 50.2054 104.971 49.7269 104.971 49.1025C104.971 48.5101 104.784 48.0361 104.41 47.6807C104.036 47.3252 103.524 47.1406 102.872 47.127H100.438V51.0303Z" fill="#818181"/>
<path d="M123.359 50.4082H124.31C124.907 50.3991 125.376 50.2419 125.718 49.9365C126.06 49.6312 126.23 49.2188 126.23 48.6992C126.23 47.5326 125.649 46.9492 124.487 46.9492C123.94 46.9492 123.503 47.1064 123.175 47.4209C122.851 47.7308 122.689 48.1432 122.689 48.6582H121.425C121.425 47.8698 121.712 47.2158 122.286 46.6963C122.865 46.1722 123.599 45.9102 124.487 45.9102C125.426 45.9102 126.162 46.1585 126.695 46.6553C127.229 47.152 127.495 47.8424 127.495 48.7266C127.495 49.1595 127.354 49.5788 127.071 49.9844C126.793 50.39 126.413 50.693 125.93 50.8936C126.477 51.0667 126.898 51.3538 127.194 51.7549C127.495 52.1559 127.646 52.6458 127.646 53.2246C127.646 54.1178 127.354 54.8265 126.771 55.3506C126.187 55.8747 125.428 56.1367 124.494 56.1367C123.56 56.1367 122.799 55.8838 122.211 55.3779C121.628 54.8721 121.336 54.2044 121.336 53.375H122.607C122.607 53.8991 122.778 54.3184 123.12 54.6328C123.462 54.9473 123.92 55.1045 124.494 55.1045C125.105 55.1045 125.572 54.945 125.896 54.626C126.219 54.307 126.381 53.849 126.381 53.252C126.381 52.6732 126.203 52.2288 125.848 51.9189C125.492 51.609 124.979 51.4495 124.31 51.4404H123.359V50.4082Z" fill="#818181"/>
<path d="M135.623 51.7549C135.623 53.236 135.37 54.3366 134.864 55.0566C134.358 55.7767 133.568 56.1367 132.492 56.1367C131.43 56.1367 130.644 55.7858 130.134 55.084C129.623 54.3776 129.359 53.3249 129.341 51.9258V50.2373C129.341 48.7744 129.594 47.6875 130.1 46.9766C130.605 46.2656 131.398 45.9102 132.479 45.9102C133.549 45.9102 134.338 46.2542 134.844 46.9424C135.35 47.626 135.609 48.6833 135.623 50.1143V51.7549ZM134.358 50.0254C134.358 48.9544 134.208 48.1751 133.907 47.6875C133.606 47.1953 133.13 46.9492 132.479 46.9492C131.831 46.9492 131.36 47.193 131.063 47.6807C130.767 48.1683 130.615 48.918 130.605 49.9297V51.9531C130.605 53.0286 130.76 53.8239 131.07 54.3389C131.385 54.8493 131.859 55.1045 132.492 55.1045C133.117 55.1045 133.579 54.863 133.88 54.3799C134.185 53.8968 134.345 53.1357 134.358 52.0967V50.0254Z" fill="#818181"/>
<path d="M143.765 56H137.243V55.0908L140.688 51.2627C141.199 50.6839 141.55 50.2145 141.741 49.8545C141.937 49.4899 142.035 49.1139 142.035 48.7266C142.035 48.207 141.878 47.7809 141.563 47.4482C141.249 47.1156 140.83 46.9492 140.306 46.9492C139.677 46.9492 139.187 47.1292 138.836 47.4893C138.49 47.8447 138.316 48.3415 138.316 48.9795H137.052C137.052 48.0635 137.346 47.3229 137.934 46.7578C138.526 46.1927 139.317 45.9102 140.306 45.9102C141.231 45.9102 141.962 46.154 142.5 46.6416C143.038 47.1247 143.307 47.7695 143.307 48.5762C143.307 49.556 142.682 50.7227 141.434 52.0762L138.768 54.9678H143.765V56Z" fill="#818181"/>
<path d="M150.443 52.6572H151.824V53.6895H150.443V56H149.172V53.6895H144.64V52.9443L149.097 46.0469H150.443V52.6572ZM146.075 52.6572H149.172V47.7764L149.021 48.0498L146.075 52.6572Z" fill="#818181"/>
<path d="M159.05 51.3037L160.69 48.6035H162.167L159.747 52.2607L162.242 56H160.779L159.07 53.2314L157.361 56H155.892L158.387 52.2607L155.967 48.6035H157.43L159.05 51.3037Z" fill="#818181"/>
<path d="M172.195 52.6572H173.576V53.6895H172.195V56H170.924V53.6895H166.392V52.9443L170.849 46.0469H172.195V52.6572ZM167.827 52.6572H170.924V47.7764L170.773 48.0498L167.827 52.6572Z" fill="#818181"/>
<path d="M180.959 51.7549C180.959 53.236 180.706 54.3366 180.2 55.0566C179.694 55.7767 178.904 56.1367 177.828 56.1367C176.766 56.1367 175.98 55.7858 175.47 55.084C174.959 54.3776 174.695 53.3249 174.677 51.9258V50.2373C174.677 48.7744 174.93 47.6875 175.436 46.9766C175.941 46.2656 176.734 45.9102 177.814 45.9102C178.885 45.9102 179.674 46.2542 180.18 46.9424C180.686 47.626 180.945 48.6833 180.959 50.1143V51.7549ZM179.694 50.0254C179.694 48.9544 179.544 48.1751 179.243 47.6875C178.942 47.1953 178.466 46.9492 177.814 46.9492C177.167 46.9492 176.696 47.193 176.399 47.6807C176.103 48.1683 175.951 48.918 175.941 49.9297V51.9531C175.941 53.0286 176.096 53.8239 176.406 54.3389C176.721 54.8493 177.195 55.1045 177.828 55.1045C178.452 55.1045 178.915 54.863 179.216 54.3799C179.521 53.8968 179.681 53.1357 179.694 52.0967V50.0254Z" fill="#818181"/>
<path d="M184.418 50.4082H185.368C185.965 50.3991 186.435 50.2419 186.776 49.9365C187.118 49.6312 187.289 49.2188 187.289 48.6992C187.289 47.5326 186.708 46.9492 185.546 46.9492C184.999 46.9492 184.562 47.1064 184.233 47.4209C183.91 47.7308 183.748 48.1432 183.748 48.6582H182.483C182.483 47.8698 182.771 47.2158 183.345 46.6963C183.924 46.1722 184.657 45.9102 185.546 45.9102C186.485 45.9102 187.221 46.1585 187.754 46.6553C188.287 47.152 188.554 47.8424 188.554 48.7266C188.554 49.1595 188.412 49.5788 188.13 49.9844C187.852 50.39 187.471 50.693 186.988 50.8936C187.535 51.0667 187.957 51.3538 188.253 51.7549C188.554 52.1559 188.704 52.6458 188.704 53.2246C188.704 54.1178 188.412 54.8265 187.829 55.3506C187.246 55.8747 186.487 56.1367 185.553 56.1367C184.618 56.1367 183.857 55.8838 183.27 55.3779C182.686 54.8721 182.395 54.2044 182.395 53.375H183.666C183.666 53.8991 183.837 54.3184 184.179 54.6328C184.521 54.9473 184.979 55.1045 185.553 55.1045C186.163 55.1045 186.631 54.945 186.954 54.626C187.278 54.307 187.439 53.849 187.439 53.252C187.439 52.6732 187.262 52.2288 186.906 51.9189C186.551 51.609 186.038 51.4495 185.368 51.4404H184.418V50.4082Z" fill="#818181"/>
<path d="M196.962 56H190.44V55.0908L193.886 51.2627C194.396 50.6839 194.747 50.2145 194.938 49.8545C195.134 49.4899 195.232 49.1139 195.232 48.7266C195.232 48.207 195.075 47.7809 194.761 47.4482C194.446 47.1156 194.027 46.9492 193.503 46.9492C192.874 46.9492 192.384 47.1292 192.033 47.4893C191.687 47.8447 191.514 48.3415 191.514 48.9795H190.249C190.249 48.0635 190.543 47.3229 191.131 46.7578C191.723 46.1927 192.514 45.9102 193.503 45.9102C194.428 45.9102 195.16 46.154 195.697 46.6416C196.235 47.1247 196.504 47.7695 196.504 48.5762C196.504 49.556 195.88 50.7227 194.631 52.0762L191.965 54.9678H196.962V56Z" fill="#818181"/>
<path d="M218.618 46.7578L214.496 56H213.17L217.278 47.0859H211.892V46.0469H218.618V46.7578Z" fill="#818181"/>
<path d="M220.211 55.3369C220.211 55.1182 220.275 54.9359 220.402 54.79C220.535 54.6442 220.73 54.5713 220.99 54.5713C221.25 54.5713 221.446 54.6442 221.578 54.79C221.715 54.9359 221.783 55.1182 221.783 55.3369C221.783 55.5465 221.715 55.722 221.578 55.8633C221.446 56.0046 221.25 56.0752 220.99 56.0752C220.73 56.0752 220.535 56.0046 220.402 55.8633C220.275 55.722 220.211 55.5465 220.211 55.3369Z" fill="#818181"/>
<path d="M225.584 50.4082H226.534C227.131 50.3991 227.601 50.2419 227.942 49.9365C228.284 49.6312 228.455 49.2188 228.455 48.6992C228.455 47.5326 227.874 46.9492 226.712 46.9492C226.165 46.9492 225.728 47.1064 225.399 47.4209C225.076 47.7308 224.914 48.1432 224.914 48.6582H223.649C223.649 47.8698 223.937 47.2158 224.511 46.6963C225.09 46.1722 225.823 45.9102 226.712 45.9102C227.651 45.9102 228.387 46.1585 228.92 46.6553C229.453 47.152 229.72 47.8424 229.72 48.7266C229.72 49.1595 229.578 49.5788 229.296 49.9844C229.018 50.39 228.637 50.693 228.154 50.8936C228.701 51.0667 229.123 51.3538 229.419 51.7549C229.72 52.1559 229.87 52.6458 229.87 53.2246C229.87 54.1178 229.578 54.8265 228.995 55.3506C228.412 55.8747 227.653 56.1367 226.719 56.1367C225.785 56.1367 225.023 55.8838 224.436 55.3779C223.852 54.8721 223.561 54.2044 223.561 53.375H224.832C224.832 53.8991 225.003 54.3184 225.345 54.6328C225.687 54.9473 226.145 55.1045 226.719 55.1045C227.329 55.1045 227.797 54.945 228.12 54.626C228.444 54.307 228.605 53.849 228.605 53.252C228.605 52.6732 228.428 52.2288 228.072 51.9189C227.717 51.609 227.204 51.4495 226.534 51.4404H225.584V50.4082Z" fill="#818181"/>
<path d="M237.103 46.0469L240.356 54.168L243.61 46.0469H245.312V56H244V52.124L244.123 47.9404L240.855 56H239.851L236.59 47.9609L236.72 52.124V56H235.407V46.0469H237.103Z" fill="#818181"/>
<path d="M247.63 56V46.0469H250.884C251.964 46.0469 252.775 46.2702 253.317 46.7168C253.864 47.1634 254.138 47.8242 254.138 48.6992C254.138 49.1641 254.006 49.5765 253.741 49.9365C253.477 50.292 253.117 50.5677 252.661 50.7637C253.199 50.9141 253.623 51.2012 253.933 51.625C254.247 52.0443 254.404 52.5456 254.404 53.1289C254.404 54.0221 254.115 54.724 253.536 55.2344C252.957 55.7448 252.139 56 251.082 56H247.63ZM248.942 51.3447V54.9268H251.109C251.72 54.9268 252.201 54.7695 252.552 54.4551C252.907 54.1361 253.085 53.6986 253.085 53.1426C253.085 51.944 252.433 51.3447 251.13 51.3447H248.942ZM248.942 50.292H250.925C251.499 50.292 251.957 50.1484 252.299 49.8613C252.645 49.5742 252.818 49.1846 252.818 48.6924C252.818 48.1455 252.659 47.749 252.34 47.5029C252.021 47.2523 251.535 47.127 250.884 47.127H248.942V50.292Z" fill="#818181"/>
<path d="M62.6016 110.031H57.8359L56.7656 113H55.2188L59.5625 101.625H60.875L65.2266 113H63.6875L62.6016 110.031ZM58.2891 108.797H62.1562L60.2188 103.477L58.2891 108.797Z" fill="#818181"/>
<path d="M73.6719 108.867C73.6719 110.154 73.3776 111.19 72.7891 111.977C72.2005 112.763 71.4036 113.156 70.3984 113.156C69.3724 113.156 68.5651 112.831 67.9766 112.18V116.25H66.5312V104.547H67.8516L67.9219 105.484C68.5104 104.755 69.3281 104.391 70.375 104.391C71.3906 104.391 72.1927 104.773 72.7812 105.539C73.375 106.305 73.6719 107.37 73.6719 108.734V108.867ZM72.2266 108.703C72.2266 107.75 72.0234 106.997 71.6172 106.445C71.2109 105.893 70.6536 105.617 69.9453 105.617C69.0703 105.617 68.4141 106.005 67.9766 106.781V110.82C68.4089 111.591 69.0703 111.977 69.9609 111.977C70.6536 111.977 71.2031 111.703 71.6094 111.156C72.0208 110.604 72.2266 109.786 72.2266 108.703Z" fill="#818181"/>
<path d="M82.6562 108.867C82.6562 110.154 82.362 111.19 81.7734 111.977C81.1849 112.763 80.388 113.156 79.3828 113.156C78.3568 113.156 77.5495 112.831 76.9609 112.18V116.25H75.5156V104.547H76.8359L76.9062 105.484C77.4948 104.755 78.3125 104.391 79.3594 104.391C80.375 104.391 81.1771 104.773 81.7656 105.539C82.3594 106.305 82.6562 107.37 82.6562 108.734V108.867ZM81.2109 108.703C81.2109 107.75 81.0078 106.997 80.6016 106.445C80.1953 105.893 79.638 105.617 78.9297 105.617C78.0547 105.617 77.3984 106.005 76.9609 106.781V110.82C77.3932 111.591 78.0547 111.977 78.9453 111.977C79.638 111.977 80.1875 111.703 80.5938 111.156C81.0052 110.604 81.2109 109.786 81.2109 108.703Z" fill="#818181"/>
<path d="M86.0703 113H84.625V101H86.0703V113Z" fill="#818181"/>
<path d="M91.8984 113.156C90.7526 113.156 89.8203 112.781 89.1016 112.031C88.3828 111.276 88.0234 110.268 88.0234 109.008V108.742C88.0234 107.904 88.1823 107.156 88.5 106.5C88.8229 105.839 89.2708 105.323 89.8438 104.953C90.4219 104.578 91.0469 104.391 91.7188 104.391C92.8177 104.391 93.6719 104.753 94.2812 105.477C94.8906 106.201 95.1953 107.237 95.1953 108.586V109.188H89.4688C89.4896 110.021 89.7318 110.695 90.1953 111.211C90.6641 111.721 91.2578 111.977 91.9766 111.977C92.487 111.977 92.9193 111.872 93.2734 111.664C93.6276 111.456 93.9375 111.18 94.2031 110.836L95.0859 111.523C94.3776 112.612 93.3151 113.156 91.8984 113.156ZM91.7188 105.578C91.1354 105.578 90.6458 105.792 90.25 106.219C89.8542 106.641 89.6094 107.234 89.5156 108H93.75V107.891C93.7083 107.156 93.5104 106.589 93.1562 106.188C92.8021 105.781 92.3229 105.578 91.7188 105.578Z" fill="#818181"/>
<path d="M102.414 113H100.969V104.547H102.414V113ZM100.852 102.305C100.852 102.07 100.922 101.872 101.062 101.711C101.208 101.549 101.422 101.469 101.703 101.469C101.984 101.469 102.198 101.549 102.344 101.711C102.49 101.872 102.562 102.07 102.562 102.305C102.562 102.539 102.49 102.734 102.344 102.891C102.198 103.047 101.984 103.125 101.703 103.125C101.422 103.125 101.208 103.047 101.062 102.891C100.922 102.734 100.852 102.539 100.852 102.305Z" fill="#818181"/>
<path d="M106.461 108.547V113H104.961V101.625H109.156C110.401 101.625 111.375 101.943 112.078 102.578C112.786 103.214 113.141 104.055 113.141 105.102C113.141 106.206 112.794 107.057 112.102 107.656C111.414 108.25 110.427 108.547 109.141 108.547H106.461ZM106.461 107.32H109.156C109.958 107.32 110.573 107.133 111 106.758C111.427 106.378 111.641 105.831 111.641 105.117C111.641 104.44 111.427 103.898 111 103.492C110.573 103.086 109.987 102.875 109.242 102.859H106.461V107.32Z" fill="#818181"/>
<path d="M116.273 105.57C116.914 104.784 117.747 104.391 118.773 104.391C120.56 104.391 121.461 105.398 121.477 107.414V113H120.031V107.406C120.026 106.797 119.885 106.346 119.609 106.055C119.339 105.763 118.914 105.617 118.336 105.617C117.867 105.617 117.456 105.742 117.102 105.992C116.747 106.242 116.471 106.57 116.273 106.977V113H114.828V101H116.273V105.57Z" fill="#818181"/>
<path d="M123.258 108.695C123.258 107.867 123.419 107.122 123.742 106.461C124.07 105.799 124.523 105.289 125.102 104.93C125.685 104.57 126.349 104.391 127.094 104.391C128.245 104.391 129.174 104.789 129.883 105.586C130.596 106.383 130.953 107.443 130.953 108.766V108.867C130.953 109.69 130.794 110.43 130.477 111.086C130.164 111.737 129.714 112.245 129.125 112.609C128.542 112.974 127.87 113.156 127.109 113.156C125.964 113.156 125.034 112.758 124.32 111.961C123.612 111.164 123.258 110.109 123.258 108.797V108.695ZM124.711 108.867C124.711 109.805 124.927 110.557 125.359 111.125C125.797 111.693 126.38 111.977 127.109 111.977C127.844 111.977 128.427 111.69 128.859 111.117C129.292 110.539 129.508 109.732 129.508 108.695C129.508 107.768 129.286 107.018 128.844 106.445C128.406 105.867 127.823 105.578 127.094 105.578C126.38 105.578 125.805 105.862 125.367 106.43C124.93 106.997 124.711 107.81 124.711 108.867Z" fill="#818181"/>
<path d="M134.133 104.547L134.18 105.609C134.826 104.797 135.669 104.391 136.711 104.391C138.497 104.391 139.398 105.398 139.414 107.414V113H137.969V107.406C137.964 106.797 137.823 106.346 137.547 106.055C137.276 105.763 136.852 105.617 136.273 105.617C135.805 105.617 135.393 105.742 135.039 105.992C134.685 106.242 134.409 106.57 134.211 106.977V113H132.766V104.547H134.133Z" fill="#818181"/>
<path d="M145.102 113.156C143.956 113.156 143.023 112.781 142.305 112.031C141.586 111.276 141.227 110.268 141.227 109.008V108.742C141.227 107.904 141.385 107.156 141.703 106.5C142.026 105.839 142.474 105.323 143.047 104.953C143.625 104.578 144.25 104.391 144.922 104.391C146.021 104.391 146.875 104.753 147.484 105.477C148.094 106.201 148.398 107.237 148.398 108.586V109.188H142.672C142.693 110.021 142.935 110.695 143.398 111.211C143.867 111.721 144.461 111.977 145.18 111.977C145.69 111.977 146.122 111.872 146.477 111.664C146.831 111.456 147.141 111.18 147.406 110.836L148.289 111.523C147.581 112.612 146.518 113.156 145.102 113.156ZM144.922 105.578C144.339 105.578 143.849 105.792 143.453 106.219C143.057 106.641 142.812 107.234 142.719 108H146.953V107.891C146.911 107.156 146.714 106.589 146.359 106.188C146.005 105.781 145.526 105.578 144.922 105.578Z" fill="#818181"/>
<path d="M157.625 107.93C156.339 107.56 155.401 107.107 154.812 106.57C154.229 106.029 153.938 105.362 153.938 104.57C153.938 103.674 154.294 102.935 155.008 102.352C155.727 101.763 156.659 101.469 157.805 101.469C158.586 101.469 159.281 101.62 159.891 101.922C160.505 102.224 160.979 102.641 161.312 103.172C161.651 103.703 161.82 104.284 161.82 104.914H160.312C160.312 104.227 160.094 103.688 159.656 103.297C159.219 102.901 158.602 102.703 157.805 102.703C157.065 102.703 156.487 102.867 156.07 103.195C155.659 103.518 155.453 103.969 155.453 104.547C155.453 105.01 155.648 105.404 156.039 105.727C156.435 106.044 157.104 106.336 158.047 106.602C158.995 106.867 159.734 107.161 160.266 107.484C160.802 107.802 161.198 108.174 161.453 108.602C161.714 109.029 161.844 109.531 161.844 110.109C161.844 111.031 161.484 111.771 160.766 112.328C160.047 112.88 159.086 113.156 157.883 113.156C157.102 113.156 156.372 113.008 155.695 112.711C155.018 112.409 154.495 111.997 154.125 111.477C153.76 110.956 153.578 110.365 153.578 109.703H155.086C155.086 110.391 155.339 110.935 155.844 111.336C156.354 111.732 157.034 111.93 157.883 111.93C158.674 111.93 159.281 111.768 159.703 111.445C160.125 111.122 160.336 110.682 160.336 110.125C160.336 109.568 160.141 109.138 159.75 108.836C159.359 108.529 158.651 108.227 157.625 107.93Z" fill="#818181"/>
<path d="M170.203 107.742H165.273V111.773H171V113H163.773V101.625H170.922V102.859H165.273V106.516H170.203V107.742Z" fill="#818181"/>
<path d="M176.555 108.383C176.555 107.206 176.711 106.076 177.023 104.992C177.341 103.909 177.812 102.924 178.438 102.039C179.062 101.154 179.711 100.529 180.383 100.164L180.68 101.117C179.919 101.701 179.294 102.591 178.805 103.789C178.32 104.987 178.055 106.328 178.008 107.812L178 108.477C178 110.487 178.367 112.232 179.102 113.711C179.544 114.596 180.07 115.289 180.68 115.789L180.383 116.672C179.69 116.286 179.029 115.641 178.398 114.734C177.169 112.964 176.555 110.846 176.555 108.383Z" fill="#818181"/>
<path d="M189.383 113H181.93V111.961L185.867 107.586C186.451 106.924 186.852 106.388 187.07 105.977C187.294 105.56 187.406 105.13 187.406 104.688C187.406 104.094 187.227 103.607 186.867 103.227C186.508 102.846 186.029 102.656 185.43 102.656C184.711 102.656 184.151 102.862 183.75 103.273C183.354 103.68 183.156 104.247 183.156 104.977H181.711C181.711 103.93 182.047 103.083 182.719 102.438C183.396 101.792 184.299 101.469 185.43 101.469C186.487 101.469 187.323 101.747 187.938 102.305C188.552 102.857 188.859 103.594 188.859 104.516C188.859 105.635 188.146 106.969 186.719 108.516L183.672 111.82H189.383V113Z" fill="#818181"/>
<path d="M192.43 104.547L192.477 105.609C193.122 104.797 193.966 104.391 195.008 104.391C196.794 104.391 197.695 105.398 197.711 107.414V113H196.266V107.406C196.26 106.797 196.12 106.346 195.844 106.055C195.573 105.763 195.148 105.617 194.57 105.617C194.102 105.617 193.69 105.742 193.336 105.992C192.982 106.242 192.706 106.57 192.508 106.977V113H191.062V104.547H192.43Z" fill="#818181"/>
<path d="M199.539 108.703C199.539 107.406 199.846 106.365 200.461 105.578C201.076 104.786 201.88 104.391 202.875 104.391C203.865 104.391 204.648 104.729 205.227 105.406V101H206.672V113H205.344L205.273 112.094C204.695 112.802 203.891 113.156 202.859 113.156C201.88 113.156 201.081 112.755 200.461 111.953C199.846 111.151 199.539 110.104 199.539 108.812V108.703ZM200.984 108.867C200.984 109.826 201.182 110.576 201.578 111.117C201.974 111.659 202.521 111.93 203.219 111.93C204.135 111.93 204.805 111.518 205.227 110.695V106.812C204.794 106.016 204.13 105.617 203.234 105.617C202.526 105.617 201.974 105.891 201.578 106.438C201.182 106.984 200.984 107.794 200.984 108.867Z" fill="#818181"/>
<path d="M212.547 108.703C212.547 107.385 212.852 106.339 213.461 105.562C214.07 104.781 214.878 104.391 215.883 104.391C216.914 104.391 217.719 104.755 218.297 105.484L218.367 104.547H219.688V112.797C219.688 113.891 219.362 114.753 218.711 115.383C218.065 116.013 217.195 116.328 216.102 116.328C215.492 116.328 214.896 116.198 214.312 115.938C213.729 115.677 213.284 115.32 212.977 114.867L213.727 114C214.346 114.766 215.104 115.148 216 115.148C216.703 115.148 217.25 114.951 217.641 114.555C218.036 114.159 218.234 113.602 218.234 112.883V112.156C217.656 112.823 216.867 113.156 215.867 113.156C214.878 113.156 214.076 112.758 213.461 111.961C212.852 111.164 212.547 110.078 212.547 108.703ZM214 108.867C214 109.82 214.195 110.57 214.586 111.117C214.977 111.659 215.523 111.93 216.227 111.93C217.138 111.93 217.807 111.516 218.234 110.688V106.828C217.792 106.021 217.128 105.617 216.242 105.617C215.539 105.617 214.99 105.891 214.594 106.438C214.198 106.984 214 107.794 214 108.867Z" fill="#818181"/>
<path d="M225.383 113.156C224.237 113.156 223.305 112.781 222.586 112.031C221.867 111.276 221.508 110.268 221.508 109.008V108.742C221.508 107.904 221.667 107.156 221.984 106.5C222.307 105.839 222.755 105.323 223.328 104.953C223.906 104.578 224.531 104.391 225.203 104.391C226.302 104.391 227.156 104.753 227.766 105.477C228.375 106.201 228.68 107.237 228.68 108.586V109.188H222.953C222.974 110.021 223.216 110.695 223.68 111.211C224.148 111.721 224.742 111.977 225.461 111.977C225.971 111.977 226.404 111.872 226.758 111.664C227.112 111.456 227.422 111.18 227.688 110.836L228.57 111.523C227.862 112.612 226.799 113.156 225.383 113.156ZM225.203 105.578C224.62 105.578 224.13 105.792 223.734 106.219C223.339 106.641 223.094 107.234 223 108H227.234V107.891C227.193 107.156 226.995 106.589 226.641 106.188C226.286 105.781 225.807 105.578 225.203 105.578Z" fill="#818181"/>
<path d="M231.727 104.547L231.773 105.609C232.419 104.797 233.263 104.391 234.305 104.391C236.091 104.391 236.992 105.398 237.008 107.414V113H235.562V107.406C235.557 106.797 235.417 106.346 235.141 106.055C234.87 105.763 234.445 105.617 233.867 105.617C233.398 105.617 232.987 105.742 232.633 105.992C232.279 106.242 232.003 106.57 231.805 106.977V113H230.359V104.547H231.727Z" fill="#818181"/>
<path d="M242.695 113.156C241.549 113.156 240.617 112.781 239.898 112.031C239.18 111.276 238.82 110.268 238.82 109.008V108.742C238.82 107.904 238.979 107.156 239.297 106.5C239.62 105.839 240.068 105.323 240.641 104.953C241.219 104.578 241.844 104.391 242.516 104.391C243.615 104.391 244.469 104.753 245.078 105.477C245.688 106.201 245.992 107.237 245.992 108.586V109.188H240.266C240.286 110.021 240.529 110.695 240.992 111.211C241.461 111.721 242.055 111.977 242.773 111.977C243.284 111.977 243.716 111.872 244.07 111.664C244.424 111.456 244.734 111.18 245 110.836L245.883 111.523C245.174 112.612 244.112 113.156 242.695 113.156ZM242.516 105.578C241.932 105.578 241.443 105.792 241.047 106.219C240.651 106.641 240.406 107.234 240.312 108H244.547V107.891C244.505 107.156 244.307 106.589 243.953 106.188C243.599 105.781 243.12 105.578 242.516 105.578Z" fill="#818181"/>
<path d="M251.758 105.844C251.539 105.807 251.302 105.789 251.047 105.789C250.099 105.789 249.456 106.193 249.117 107V113H247.672V104.547H249.078L249.102 105.523C249.576 104.768 250.247 104.391 251.117 104.391C251.398 104.391 251.612 104.427 251.758 104.5V105.844Z" fill="#818181"/>
<path d="M258 113C257.917 112.833 257.849 112.536 257.797 112.109C257.125 112.807 256.323 113.156 255.391 113.156C254.557 113.156 253.872 112.922 253.336 112.453C252.805 111.979 252.539 111.38 252.539 110.656C252.539 109.776 252.872 109.094 253.539 108.609C254.211 108.12 255.154 107.875 256.367 107.875H257.773V107.211C257.773 106.706 257.622 106.305 257.32 106.008C257.018 105.706 256.573 105.555 255.984 105.555C255.469 105.555 255.036 105.685 254.688 105.945C254.339 106.206 254.164 106.521 254.164 106.891H252.711C252.711 106.469 252.859 106.062 253.156 105.672C253.458 105.276 253.865 104.964 254.375 104.734C254.891 104.505 255.456 104.391 256.07 104.391C257.044 104.391 257.807 104.635 258.359 105.125C258.911 105.609 259.198 106.279 259.219 107.133V111.023C259.219 111.799 259.318 112.417 259.516 112.875V113H258ZM255.602 111.898C256.055 111.898 256.484 111.781 256.891 111.547C257.297 111.312 257.591 111.008 257.773 110.633V108.898H256.641C254.87 108.898 253.984 109.417 253.984 110.453C253.984 110.906 254.135 111.26 254.438 111.516C254.74 111.771 255.128 111.898 255.602 111.898Z" fill="#818181"/>
<path d="M263.445 102.5V104.547H265.023V105.664H263.445V110.906C263.445 111.245 263.516 111.5 263.656 111.672C263.797 111.839 264.036 111.922 264.375 111.922C264.542 111.922 264.771 111.891 265.062 111.828V113C264.682 113.104 264.312 113.156 263.953 113.156C263.307 113.156 262.82 112.961 262.492 112.57C262.164 112.18 262 111.625 262 110.906V105.664H260.461V104.547H262V102.5H263.445Z" fill="#818181"/>
<path d="M268.289 113H266.844V104.547H268.289V113ZM266.727 102.305C266.727 102.07 266.797 101.872 266.938 101.711C267.083 101.549 267.297 101.469 267.578 101.469C267.859 101.469 268.073 101.549 268.219 101.711C268.365 101.872 268.438 102.07 268.438 102.305C268.438 102.539 268.365 102.734 268.219 102.891C268.073 103.047 267.859 103.125 267.578 103.125C267.297 103.125 267.083 103.047 266.938 102.891C266.797 102.734 266.727 102.539 266.727 102.305Z" fill="#818181"/>
<path d="M270.227 108.695C270.227 107.867 270.388 107.122 270.711 106.461C271.039 105.799 271.492 105.289 272.07 104.93C272.654 104.57 273.318 104.391 274.062 104.391C275.214 104.391 276.143 104.789 276.852 105.586C277.565 106.383 277.922 107.443 277.922 108.766V108.867C277.922 109.69 277.763 110.43 277.445 111.086C277.133 111.737 276.682 112.245 276.094 112.609C275.51 112.974 274.839 113.156 274.078 113.156C272.932 113.156 272.003 112.758 271.289 111.961C270.581 111.164 270.227 110.109 270.227 108.797V108.695ZM271.68 108.867C271.68 109.805 271.896 110.557 272.328 111.125C272.766 111.693 273.349 111.977 274.078 111.977C274.812 111.977 275.396 111.69 275.828 111.117C276.26 110.539 276.477 109.732 276.477 108.695C276.477 107.768 276.255 107.018 275.812 106.445C275.375 105.867 274.792 105.578 274.062 105.578C273.349 105.578 272.773 105.862 272.336 106.43C271.898 106.997 271.68 107.81 271.68 108.867Z" fill="#818181"/>
<path d="M281.102 104.547L281.148 105.609C281.794 104.797 282.638 104.391 283.68 104.391C285.466 104.391 286.367 105.398 286.383 107.414V113H284.938V107.406C284.932 106.797 284.792 106.346 284.516 106.055C284.245 105.763 283.82 105.617 283.242 105.617C282.773 105.617 282.362 105.742 282.008 105.992C281.654 106.242 281.378 106.57 281.18 106.977V113H279.734V104.547H281.102Z" fill="#818181"/>
<path d="M291.898 108.461C291.898 109.622 291.745 110.737 291.438 111.805C291.135 112.867 290.669 113.849 290.039 114.75C289.414 115.651 288.758 116.292 288.07 116.672L287.766 115.789C288.568 115.174 289.211 114.221 289.695 112.93C290.185 111.633 290.435 110.195 290.445 108.617V108.367C290.445 107.273 290.331 106.258 290.102 105.32C289.872 104.378 289.552 103.534 289.141 102.789C288.734 102.044 288.276 101.464 287.766 101.047L288.07 100.164C288.758 100.544 289.411 101.18 290.031 102.07C290.656 102.961 291.122 103.943 291.43 105.016C291.742 106.089 291.898 107.237 291.898 108.461Z" fill="#818181"/>
<path d="M59.1562 128.581H57.7686V135.595C57.7686 136.356 57.5771 136.944 57.1943 137.358C56.8115 137.778 56.2692 137.987 55.5674 137.987C55.2894 137.987 55.0365 137.946 54.8086 137.864L54.9043 136.859C55.041 136.919 55.262 136.948 55.5674 136.948C55.8636 136.948 56.0915 136.83 56.251 136.593C56.415 136.356 56.4971 136.028 56.4971 135.608V128.581H55.3281V127.604H56.4971V126.783C56.5062 126.022 56.709 125.427 57.1055 124.999C57.5065 124.571 58.0739 124.356 58.8076 124.356C59.0765 124.356 59.4023 124.404 59.7852 124.5L59.6348 125.505C59.4616 125.459 59.2383 125.437 58.9648 125.437C58.1855 125.437 57.7868 125.881 57.7686 126.77V127.604H59.1562V128.581Z" fill="#818181"/>
<path d="M60.9814 135.854H59.8945L64.0508 125.047H65.1309L60.9814 135.854Z" fill="#818181"/>
<path d="M70.5244 135H69.2529V126.571L66.7031 127.508V126.359L70.3262 124.999H70.5244V135Z" fill="#818181"/>
<path d="M74.3867 134.337C74.3867 134.118 74.4505 133.936 74.5781 133.79C74.7103 133.644 74.9062 133.571 75.166 133.571C75.4258 133.571 75.6217 133.644 75.7539 133.79C75.8906 133.936 75.959 134.118 75.959 134.337C75.959 134.547 75.8906 134.722 75.7539 134.863C75.6217 135.005 75.4258 135.075 75.166 135.075C74.9062 135.075 74.7103 135.005 74.5781 134.863C74.4505 134.722 74.3867 134.547 74.3867 134.337Z" fill="#818181"/>
<path d="M83.957 127.645C83.957 128.141 83.8249 128.583 83.5605 128.971C83.3008 129.358 82.9476 129.661 82.501 129.88C83.0205 130.103 83.4307 130.429 83.7314 130.857C84.0368 131.286 84.1895 131.771 84.1895 132.313C84.1895 133.175 83.8978 133.861 83.3145 134.371C82.7357 134.882 81.9723 135.137 81.0244 135.137C80.0674 135.137 79.2995 134.882 78.7207 134.371C78.1465 133.856 77.8594 133.17 77.8594 132.313C77.8594 131.776 78.0052 131.29 78.2969 130.857C78.5931 130.424 79.001 130.096 79.5205 129.873C79.0785 129.654 78.7298 129.351 78.4746 128.964C78.2194 128.576 78.0918 128.137 78.0918 127.645C78.0918 126.806 78.3607 126.141 78.8984 125.648C79.4362 125.156 80.1449 124.91 81.0244 124.91C81.8994 124.91 82.6058 125.156 83.1436 125.648C83.6859 126.141 83.957 126.806 83.957 127.645ZM82.9248 132.286C82.9248 131.73 82.7471 131.277 82.3916 130.926C82.0407 130.575 81.5804 130.399 81.0107 130.399C80.4411 130.399 79.9831 130.573 79.6367 130.919C79.2949 131.265 79.124 131.721 79.124 132.286C79.124 132.851 79.2904 133.296 79.623 133.619C79.9603 133.943 80.4274 134.104 81.0244 134.104C81.6169 134.104 82.0817 133.943 82.4189 133.619C82.7562 133.291 82.9248 132.847 82.9248 132.286ZM81.0244 125.949C80.5277 125.949 80.1243 126.104 79.8145 126.414C79.5091 126.719 79.3564 127.136 79.3564 127.665C79.3564 128.171 79.5068 128.581 79.8076 128.896C80.113 129.205 80.5186 129.36 81.0244 129.36C81.5303 129.36 81.9336 129.205 82.2344 128.896C82.5397 128.581 82.6924 128.171 82.6924 127.665C82.6924 127.159 82.5352 126.747 82.2207 126.428C81.9062 126.109 81.5075 125.949 81.0244 125.949Z" fill="#818181"/>
<path d="M103.829 135H102.558V126.571L100.008 127.508V126.359L103.631 124.999H103.829V135Z" fill="#818181"/>
<path d="M107.917 135.854H106.83L110.986 125.047H112.066L107.917 135.854Z" fill="#818181"/>
<path d="M117.46 135H116.188V126.571L113.639 127.508V126.359L117.262 124.999H117.46V135Z" fill="#818181"/>
<path d="M126.504 131.657H127.885V132.689H126.504V135H125.232V132.689H120.7V131.944L125.157 125.047H126.504V131.657ZM122.136 131.657H125.232V126.776L125.082 127.05L122.136 131.657Z" fill="#818181"/>
<path d="M141.283 129.408H142.233C142.83 129.399 143.3 129.242 143.642 128.937C143.983 128.631 144.154 128.219 144.154 127.699C144.154 126.533 143.573 125.949 142.411 125.949C141.864 125.949 141.427 126.106 141.099 126.421C140.775 126.731 140.613 127.143 140.613 127.658H139.349C139.349 126.87 139.636 126.216 140.21 125.696C140.789 125.172 141.522 124.91 142.411 124.91C143.35 124.91 144.086 125.159 144.619 125.655C145.152 126.152 145.419 126.842 145.419 127.727C145.419 128.16 145.278 128.579 144.995 128.984C144.717 129.39 144.337 129.693 143.854 129.894C144.4 130.067 144.822 130.354 145.118 130.755C145.419 131.156 145.569 131.646 145.569 132.225C145.569 133.118 145.278 133.826 144.694 134.351C144.111 134.875 143.352 135.137 142.418 135.137C141.484 135.137 140.723 134.884 140.135 134.378C139.551 133.872 139.26 133.204 139.26 132.375H140.531C140.531 132.899 140.702 133.318 141.044 133.633C141.386 133.947 141.844 134.104 142.418 134.104C143.029 134.104 143.496 133.945 143.819 133.626C144.143 133.307 144.305 132.849 144.305 132.252C144.305 131.673 144.127 131.229 143.771 130.919C143.416 130.609 142.903 130.45 142.233 130.44H141.283V129.408Z" fill="#818181"/>
<path d="M147.463 134.337C147.463 134.118 147.527 133.936 147.654 133.79C147.786 133.644 147.982 133.571 148.242 133.571C148.502 133.571 148.698 133.644 148.83 133.79C148.967 133.936 149.035 134.118 149.035 134.337C149.035 134.547 148.967 134.722 148.83 134.863C148.698 135.005 148.502 135.075 148.242 135.075C147.982 135.075 147.786 135.005 147.654 134.863C147.527 134.722 147.463 134.547 147.463 134.337Z" fill="#818181"/>
<path d="M155.844 130.625C155.579 130.939 155.263 131.192 154.894 131.384C154.529 131.575 154.128 131.671 153.69 131.671C153.116 131.671 152.615 131.53 152.187 131.247C151.763 130.965 151.435 130.568 151.202 130.058C150.97 129.543 150.854 128.975 150.854 128.355C150.854 127.69 150.979 127.091 151.229 126.558C151.485 126.024 151.845 125.617 152.31 125.334C152.774 125.051 153.317 124.91 153.937 124.91C154.921 124.91 155.696 125.279 156.261 126.018C156.83 126.751 157.115 127.754 157.115 129.025V129.395C157.115 131.331 156.732 132.746 155.967 133.64C155.201 134.528 154.046 134.984 152.501 135.007H152.255V133.94H152.521C153.565 133.922 154.367 133.651 154.928 133.127C155.488 132.598 155.794 131.764 155.844 130.625ZM153.896 130.625C154.319 130.625 154.709 130.495 155.064 130.235C155.424 129.976 155.687 129.654 155.851 129.271V128.766C155.851 127.936 155.671 127.262 155.311 126.742C154.951 126.223 154.495 125.963 153.943 125.963C153.387 125.963 152.941 126.177 152.604 126.605C152.266 127.029 152.098 127.59 152.098 128.287C152.098 128.966 152.259 129.527 152.583 129.969C152.911 130.406 153.349 130.625 153.896 130.625Z" fill="#818181"/>
<path d="M163.705 130.625C163.441 130.939 163.124 131.192 162.755 131.384C162.39 131.575 161.989 131.671 161.552 131.671C160.978 131.671 160.476 131.53 160.048 131.247C159.624 130.965 159.296 130.568 159.063 130.058C158.831 129.543 158.715 128.975 158.715 128.355C158.715 127.69 158.84 127.091 159.091 126.558C159.346 126.024 159.706 125.617 160.171 125.334C160.636 125.051 161.178 124.91 161.798 124.91C162.782 124.91 163.557 125.279 164.122 126.018C164.692 126.751 164.977 127.754 164.977 129.025V129.395C164.977 131.331 164.594 132.746 163.828 133.64C163.062 134.528 161.907 134.984 160.362 135.007H160.116V133.94H160.383C161.426 133.922 162.229 133.651 162.789 133.127C163.35 132.598 163.655 131.764 163.705 130.625ZM161.757 130.625C162.181 130.625 162.57 130.495 162.926 130.235C163.286 129.976 163.548 129.654 163.712 129.271V128.766C163.712 127.936 163.532 127.262 163.172 126.742C162.812 126.223 162.356 125.963 161.805 125.963C161.249 125.963 160.802 126.177 160.465 126.605C160.128 127.029 159.959 127.59 159.959 128.287C159.959 128.966 160.121 129.527 160.444 129.969C160.772 130.406 161.21 130.625 161.757 130.625Z" fill="#818181"/>
<path d="M174.984 127.604L175.019 128.424C175.561 127.786 176.292 127.467 177.213 127.467C178.247 127.467 178.951 127.863 179.325 128.656C179.571 128.301 179.89 128.014 180.282 127.795C180.679 127.576 181.146 127.467 181.684 127.467C183.306 127.467 184.131 128.326 184.158 130.044V135H182.894V130.119C182.894 129.59 182.773 129.196 182.531 128.937C182.29 128.672 181.884 128.54 181.314 128.54C180.845 128.54 180.455 128.681 180.146 128.964C179.836 129.242 179.656 129.618 179.605 130.092V135H178.334V130.153C178.334 129.078 177.808 128.54 176.755 128.54C175.925 128.54 175.358 128.893 175.053 129.6V135H173.788V127.604H174.984Z" fill="#818181"/>
<path d="M187.262 127.604L187.296 128.424C187.838 127.786 188.57 127.467 189.49 127.467C190.525 127.467 191.229 127.863 191.603 128.656C191.849 128.301 192.168 128.014 192.56 127.795C192.956 127.576 193.423 127.467 193.961 127.467C195.583 127.467 196.408 128.326 196.436 130.044V135H195.171V130.119C195.171 129.59 195.05 129.196 194.809 128.937C194.567 128.672 194.161 128.54 193.592 128.54C193.122 128.54 192.733 128.681 192.423 128.964C192.113 129.242 191.933 129.618 191.883 130.092V135H190.611V130.153C190.611 129.078 190.085 128.54 189.032 128.54C188.203 128.54 187.635 128.893 187.33 129.6V135H186.065V127.604H187.262Z" fill="#818181"/>
<path d="M210.374 135H209.062V125.047H210.374V135Z" fill="#818181"/>
<path d="M215.713 130.563C214.587 130.24 213.767 129.843 213.252 129.374C212.742 128.9 212.486 128.317 212.486 127.624C212.486 126.84 212.799 126.193 213.423 125.683C214.052 125.168 214.868 124.91 215.87 124.91C216.554 124.91 217.162 125.042 217.695 125.307C218.233 125.571 218.648 125.936 218.939 126.4C219.236 126.865 219.384 127.373 219.384 127.925H218.064C218.064 127.323 217.873 126.852 217.49 126.51C217.107 126.163 216.567 125.99 215.87 125.99C215.223 125.99 214.717 126.134 214.353 126.421C213.993 126.703 213.812 127.098 213.812 127.604C213.812 128.009 213.983 128.353 214.325 128.636C214.672 128.914 215.257 129.169 216.082 129.401C216.911 129.634 217.559 129.891 218.023 130.174C218.493 130.452 218.839 130.778 219.062 131.151C219.29 131.525 219.404 131.965 219.404 132.471C219.404 133.277 219.09 133.924 218.461 134.412C217.832 134.895 216.991 135.137 215.938 135.137C215.255 135.137 214.617 135.007 214.024 134.747C213.432 134.483 212.974 134.123 212.65 133.667C212.331 133.211 212.172 132.694 212.172 132.115H213.491C213.491 132.717 213.712 133.193 214.154 133.544C214.601 133.89 215.196 134.063 215.938 134.063C216.631 134.063 217.162 133.922 217.531 133.64C217.9 133.357 218.085 132.972 218.085 132.484C218.085 131.997 217.914 131.621 217.572 131.356C217.23 131.088 216.611 130.823 215.713 130.563Z" fill="#818181"/>
<path d="M228.749 130.345C228.749 131.32 228.585 132.172 228.257 132.901C227.929 133.626 227.464 134.18 226.862 134.562C226.261 134.945 225.559 135.137 224.757 135.137C223.973 135.137 223.278 134.945 222.672 134.562C222.066 134.175 221.594 133.626 221.257 132.915C220.924 132.2 220.753 131.372 220.744 130.434V129.716C220.744 128.759 220.91 127.913 221.243 127.18C221.576 126.446 222.045 125.885 222.651 125.498C223.262 125.106 223.959 124.91 224.743 124.91C225.541 124.91 226.243 125.104 226.849 125.491C227.459 125.874 227.929 126.432 228.257 127.166C228.585 127.895 228.749 128.745 228.749 129.716V130.345ZM227.443 129.702C227.443 128.522 227.206 127.617 226.732 126.988C226.258 126.355 225.595 126.038 224.743 126.038C223.914 126.038 223.26 126.355 222.781 126.988C222.307 127.617 222.063 128.492 222.05 129.613V130.345C222.05 131.489 222.289 132.389 222.768 133.045C223.251 133.697 223.914 134.022 224.757 134.022C225.604 134.022 226.261 133.715 226.726 133.1C227.19 132.48 227.43 131.593 227.443 130.44V129.702Z" fill="#818181"/>
<path d="M236.426 127.645C236.426 128.141 236.294 128.583 236.029 128.971C235.77 129.358 235.416 129.661 234.97 129.88C235.489 130.103 235.899 130.429 236.2 130.857C236.506 131.286 236.658 131.771 236.658 132.313C236.658 133.175 236.367 133.861 235.783 134.371C235.204 134.882 234.441 135.137 233.493 135.137C232.536 135.137 231.768 134.882 231.189 134.371C230.615 133.856 230.328 133.17 230.328 132.313C230.328 131.776 230.474 131.29 230.766 130.857C231.062 130.424 231.47 130.096 231.989 129.873C231.547 129.654 231.199 129.351 230.943 128.964C230.688 128.576 230.561 128.137 230.561 127.645C230.561 126.806 230.829 126.141 231.367 125.648C231.905 125.156 232.614 124.91 233.493 124.91C234.368 124.91 235.075 125.156 235.612 125.648C236.155 126.141 236.426 126.806 236.426 127.645ZM235.394 132.286C235.394 131.73 235.216 131.277 234.86 130.926C234.509 130.575 234.049 130.399 233.479 130.399C232.91 130.399 232.452 130.573 232.105 130.919C231.764 131.265 231.593 131.721 231.593 132.286C231.593 132.851 231.759 133.296 232.092 133.619C232.429 133.943 232.896 134.104 233.493 134.104C234.086 134.104 234.55 133.943 234.888 133.619C235.225 133.291 235.394 132.847 235.394 132.286ZM233.493 125.949C232.996 125.949 232.593 126.104 232.283 126.414C231.978 126.719 231.825 127.136 231.825 127.665C231.825 128.171 231.976 128.581 232.276 128.896C232.582 129.205 232.987 129.36 233.493 129.36C233.999 129.36 234.402 129.205 234.703 128.896C235.008 128.581 235.161 128.171 235.161 127.665C235.161 127.159 235.004 126.747 234.689 126.428C234.375 126.109 233.976 125.949 233.493 125.949Z" fill="#818181"/>
<path d="M244.492 130.755C244.492 132.236 244.239 133.337 243.733 134.057C243.228 134.777 242.437 135.137 241.361 135.137C240.299 135.137 239.513 134.786 239.003 134.084C238.493 133.378 238.228 132.325 238.21 130.926V129.237C238.21 127.774 238.463 126.688 238.969 125.977C239.475 125.266 240.268 124.91 241.348 124.91C242.419 124.91 243.207 125.254 243.713 125.942C244.219 126.626 244.479 127.683 244.492 129.114V130.755ZM243.228 129.025C243.228 127.954 243.077 127.175 242.776 126.688C242.476 126.195 241.999 125.949 241.348 125.949C240.701 125.949 240.229 126.193 239.933 126.681C239.636 127.168 239.484 127.918 239.475 128.93V130.953C239.475 132.029 239.63 132.824 239.939 133.339C240.254 133.849 240.728 134.104 241.361 134.104C241.986 134.104 242.448 133.863 242.749 133.38C243.054 132.897 243.214 132.136 243.228 131.097V129.025Z" fill="#818181"/>
<path d="M252.354 130.755C252.354 132.236 252.101 133.337 251.595 134.057C251.089 134.777 250.298 135.137 249.223 135.137C248.161 135.137 247.375 134.786 246.864 134.084C246.354 133.378 246.09 132.325 246.071 130.926V129.237C246.071 127.774 246.324 126.688 246.83 125.977C247.336 125.266 248.129 124.91 249.209 124.91C250.28 124.91 251.068 125.254 251.574 125.942C252.08 126.626 252.34 127.683 252.354 129.114V130.755ZM251.089 129.025C251.089 127.954 250.938 127.175 250.638 126.688C250.337 126.195 249.861 125.949 249.209 125.949C248.562 125.949 248.09 126.193 247.794 126.681C247.498 127.168 247.345 127.918 247.336 128.93V130.953C247.336 132.029 247.491 132.824 247.801 133.339C248.115 133.849 248.589 134.104 249.223 134.104C249.847 134.104 250.31 133.863 250.61 133.38C250.916 132.897 251.075 132.136 251.089 131.097V129.025Z" fill="#818181"/>
<path d="M64.3281 188.625V196.359C64.3229 197.432 63.9844 198.31 63.3125 198.992C62.6458 199.674 61.7396 200.057 60.5938 200.141L60.1953 200.156C58.9505 200.156 57.9583 199.82 57.2188 199.148C56.4792 198.477 56.1042 197.552 56.0938 196.375V188.625H57.5781V196.328C57.5781 197.151 57.8047 197.792 58.2578 198.25C58.7109 198.703 59.3568 198.93 60.1953 198.93C61.0443 198.93 61.6927 198.703 62.1406 198.25C62.5938 197.797 62.8203 197.159 62.8203 196.336V188.625H64.3281Z" fill="#818181"/>
<path d="M73.6094 195.867C73.6094 197.154 73.3151 198.19 72.7266 198.977C72.138 199.763 71.3411 200.156 70.3359 200.156C69.3099 200.156 68.5026 199.831 67.9141 199.18V203.25H66.4688V191.547H67.7891L67.8594 192.484C68.4479 191.755 69.2656 191.391 70.3125 191.391C71.3281 191.391 72.1302 191.773 72.7188 192.539C73.3125 193.305 73.6094 194.37 73.6094 195.734V195.867ZM72.1641 195.703C72.1641 194.75 71.9609 193.997 71.5547 193.445C71.1484 192.893 70.5911 192.617 69.8828 192.617C69.0078 192.617 68.3516 193.005 67.9141 193.781V197.82C68.3464 198.591 69.0078 198.977 69.8984 198.977C70.5911 198.977 71.1406 198.703 71.5469 198.156C71.9583 197.604 72.1641 196.786 72.1641 195.703Z" fill="#818181"/>
<path d="M77.0234 200H75.5781V188H77.0234V200Z" fill="#818181"/>
<path d="M78.9609 195.695C78.9609 194.867 79.1224 194.122 79.4453 193.461C79.7734 192.799 80.2266 192.289 80.8047 191.93C81.388 191.57 82.0521 191.391 82.7969 191.391C83.9479 191.391 84.8776 191.789 85.5859 192.586C86.2995 193.383 86.6562 194.443 86.6562 195.766V195.867C86.6562 196.69 86.4974 197.43 86.1797 198.086C85.8672 198.737 85.4167 199.245 84.8281 199.609C84.2448 199.974 83.5729 200.156 82.8125 200.156C81.6667 200.156 80.737 199.758 80.0234 198.961C79.3151 198.164 78.9609 197.109 78.9609 195.797V195.695ZM80.4141 195.867C80.4141 196.805 80.6302 197.557 81.0625 198.125C81.5 198.693 82.0833 198.977 82.8125 198.977C83.5469 198.977 84.1302 198.69 84.5625 198.117C84.9948 197.539 85.2109 196.732 85.2109 195.695C85.2109 194.768 84.9896 194.018 84.5469 193.445C84.1094 192.867 83.526 192.578 82.7969 192.578C82.0833 192.578 81.5078 192.862 81.0703 193.43C80.6328 193.997 80.4141 194.81 80.4141 195.867Z" fill="#818181"/>
<path d="M93.6875 200C93.6042 199.833 93.5365 199.536 93.4844 199.109C92.8125 199.807 92.0104 200.156 91.0781 200.156C90.2448 200.156 89.5599 199.922 89.0234 199.453C88.4922 198.979 88.2266 198.38 88.2266 197.656C88.2266 196.776 88.5599 196.094 89.2266 195.609C89.8984 195.12 90.8411 194.875 92.0547 194.875H93.4609V194.211C93.4609 193.706 93.3099 193.305 93.0078 193.008C92.7057 192.706 92.2604 192.555 91.6719 192.555C91.1562 192.555 90.724 192.685 90.375 192.945C90.026 193.206 89.8516 193.521 89.8516 193.891H88.3984C88.3984 193.469 88.5469 193.062 88.8438 192.672C89.1458 192.276 89.5521 191.964 90.0625 191.734C90.5781 191.505 91.1432 191.391 91.7578 191.391C92.7318 191.391 93.4948 191.635 94.0469 192.125C94.599 192.609 94.8854 193.279 94.9062 194.133V198.023C94.9062 198.799 95.0052 199.417 95.2031 199.875V200H93.6875ZM91.2891 198.898C91.7422 198.898 92.1719 198.781 92.5781 198.547C92.9844 198.312 93.2786 198.008 93.4609 197.633V195.898H92.3281C90.5573 195.898 89.6719 196.417 89.6719 197.453C89.6719 197.906 89.8229 198.26 90.125 198.516C90.4271 198.771 90.8151 198.898 91.2891 198.898Z" fill="#818181"/>
<path d="M96.8203 195.703C96.8203 194.406 97.1276 193.365 97.7422 192.578C98.3568 191.786 99.1615 191.391 100.156 191.391C101.146 191.391 101.93 191.729 102.508 192.406V188H103.953V200H102.625L102.555 199.094C101.977 199.802 101.172 200.156 100.141 200.156C99.1615 200.156 98.362 199.755 97.7422 198.953C97.1276 198.151 96.8203 197.104 96.8203 195.812V195.703ZM98.2656 195.867C98.2656 196.826 98.4635 197.576 98.8594 198.117C99.2552 198.659 99.8021 198.93 100.5 198.93C101.417 198.93 102.086 198.518 102.508 197.695V193.812C102.076 193.016 101.411 192.617 100.516 192.617C99.8073 192.617 99.2552 192.891 98.8594 193.438C98.4635 193.984 98.2656 194.794 98.2656 195.867Z" fill="#818181"/>
<path d="M109.711 200.156C108.565 200.156 107.633 199.781 106.914 199.031C106.195 198.276 105.836 197.268 105.836 196.008V195.742C105.836 194.904 105.995 194.156 106.312 193.5C106.635 192.839 107.083 192.323 107.656 191.953C108.234 191.578 108.859 191.391 109.531 191.391C110.63 191.391 111.484 191.753 112.094 192.477C112.703 193.201 113.008 194.237 113.008 195.586V196.188H107.281C107.302 197.021 107.544 197.695 108.008 198.211C108.477 198.721 109.07 198.977 109.789 198.977C110.299 198.977 110.732 198.872 111.086 198.664C111.44 198.456 111.75 198.18 112.016 197.836L112.898 198.523C112.19 199.612 111.128 200.156 109.711 200.156ZM109.531 192.578C108.948 192.578 108.458 192.792 108.062 193.219C107.667 193.641 107.422 194.234 107.328 195H111.562V194.891C111.521 194.156 111.323 193.589 110.969 193.188C110.615 192.781 110.135 192.578 109.531 192.578Z" fill="#818181"/>
<path d="M114.336 195.703C114.336 194.406 114.643 193.365 115.258 192.578C115.872 191.786 116.677 191.391 117.672 191.391C118.661 191.391 119.445 191.729 120.023 192.406V188H121.469V200H120.141L120.07 199.094C119.492 199.802 118.688 200.156 117.656 200.156C116.677 200.156 115.878 199.755 115.258 198.953C114.643 198.151 114.336 197.104 114.336 195.812V195.703ZM115.781 195.867C115.781 196.826 115.979 197.576 116.375 198.117C116.771 198.659 117.318 198.93 118.016 198.93C118.932 198.93 119.602 198.518 120.023 197.695V193.812C119.591 193.016 118.927 192.617 118.031 192.617C117.323 192.617 116.771 192.891 116.375 193.438C115.979 193.984 115.781 194.794 115.781 195.867Z" fill="#818181"/>
<path d="M128.398 200V192.664H127.062V191.547H128.398V190.68C128.398 189.773 128.641 189.073 129.125 188.578C129.609 188.083 130.294 187.836 131.18 187.836C131.513 187.836 131.844 187.88 132.172 187.969L132.094 189.141C131.849 189.094 131.589 189.07 131.312 189.07C130.844 189.07 130.482 189.208 130.227 189.484C129.971 189.755 129.844 190.146 129.844 190.656V191.547H131.648V192.664H129.844V200H128.398Z" fill="#818181"/>
<path d="M137.336 192.844C137.117 192.807 136.88 192.789 136.625 192.789C135.677 192.789 135.034 193.193 134.695 194V200H133.25V191.547H134.656L134.68 192.523C135.154 191.768 135.826 191.391 136.695 191.391C136.977 191.391 137.19 191.427 137.336 191.5V192.844Z" fill="#818181"/>
<path d="M138.133 195.695C138.133 194.867 138.294 194.122 138.617 193.461C138.945 192.799 139.398 192.289 139.977 191.93C140.56 191.57 141.224 191.391 141.969 191.391C143.12 191.391 144.049 191.789 144.758 192.586C145.471 193.383 145.828 194.443 145.828 195.766V195.867C145.828 196.69 145.669 197.43 145.352 198.086C145.039 198.737 144.589 199.245 144 199.609C143.417 199.974 142.745 200.156 141.984 200.156C140.839 200.156 139.909 199.758 139.195 198.961C138.487 198.164 138.133 197.109 138.133 195.797V195.695ZM139.586 195.867C139.586 196.805 139.802 197.557 140.234 198.125C140.672 198.693 141.255 198.977 141.984 198.977C142.719 198.977 143.302 198.69 143.734 198.117C144.167 197.539 144.383 196.732 144.383 195.695C144.383 194.768 144.161 194.018 143.719 193.445C143.281 192.867 142.698 192.578 141.969 192.578C141.255 192.578 140.68 192.862 140.242 193.43C139.805 193.997 139.586 194.81 139.586 195.867Z" fill="#818181"/>
<path d="M149 191.547L149.039 192.484C149.659 191.755 150.495 191.391 151.547 191.391C152.729 191.391 153.534 191.844 153.961 192.75C154.242 192.344 154.607 192.016 155.055 191.766C155.508 191.516 156.042 191.391 156.656 191.391C158.51 191.391 159.453 192.372 159.484 194.336V200H158.039V194.422C158.039 193.818 157.901 193.367 157.625 193.07C157.349 192.768 156.885 192.617 156.234 192.617C155.698 192.617 155.253 192.779 154.898 193.102C154.544 193.419 154.339 193.849 154.281 194.391V200H152.828V194.461C152.828 193.232 152.227 192.617 151.023 192.617C150.076 192.617 149.427 193.021 149.078 193.828V200H147.633V191.547H149Z" fill="#818181"/>
<path d="M170.859 200C170.776 199.833 170.708 199.536 170.656 199.109C169.984 199.807 169.182 200.156 168.25 200.156C167.417 200.156 166.732 199.922 166.195 199.453C165.664 198.979 165.398 198.38 165.398 197.656C165.398 196.776 165.732 196.094 166.398 195.609C167.07 195.12 168.013 194.875 169.227 194.875H170.633V194.211C170.633 193.706 170.482 193.305 170.18 193.008C169.878 192.706 169.432 192.555 168.844 192.555C168.328 192.555 167.896 192.685 167.547 192.945C167.198 193.206 167.023 193.521 167.023 193.891H165.57C165.57 193.469 165.719 193.062 166.016 192.672C166.318 192.276 166.724 191.964 167.234 191.734C167.75 191.505 168.315 191.391 168.93 191.391C169.904 191.391 170.667 191.635 171.219 192.125C171.771 192.609 172.057 193.279 172.078 194.133V198.023C172.078 198.799 172.177 199.417 172.375 199.875V200H170.859ZM168.461 198.898C168.914 198.898 169.344 198.781 169.75 198.547C170.156 198.312 170.451 198.008 170.633 197.633V195.898H169.5C167.729 195.898 166.844 196.417 166.844 197.453C166.844 197.906 166.995 198.26 167.297 198.516C167.599 198.771 167.987 198.898 168.461 198.898Z" fill="#818181"/>
<path d="M175.711 191.547L175.758 192.609C176.404 191.797 177.247 191.391 178.289 191.391C180.076 191.391 180.977 192.398 180.992 194.414V200H179.547V194.406C179.542 193.797 179.401 193.346 179.125 193.055C178.854 192.763 178.43 192.617 177.852 192.617C177.383 192.617 176.971 192.742 176.617 192.992C176.263 193.242 175.987 193.57 175.789 193.977V200H174.344V191.547H175.711Z" fill="#818181"/>
<path d="M188.711 200H187.266V191.547H188.711V200ZM187.148 189.305C187.148 189.07 187.219 188.872 187.359 188.711C187.505 188.549 187.719 188.469 188 188.469C188.281 188.469 188.495 188.549 188.641 188.711C188.786 188.872 188.859 189.07 188.859 189.305C188.859 189.539 188.786 189.734 188.641 189.891C188.495 190.047 188.281 190.125 188 190.125C187.719 190.125 187.505 190.047 187.359 189.891C187.219 189.734 187.148 189.539 187.148 189.305Z" fill="#818181"/>
<path d="M200.008 194.68C200.008 195.794 199.82 196.768 199.445 197.602C199.07 198.43 198.539 199.062 197.852 199.5C197.164 199.938 196.362 200.156 195.445 200.156C194.549 200.156 193.755 199.938 193.062 199.5C192.37 199.057 191.831 198.43 191.445 197.617C191.065 196.799 190.87 195.854 190.859 194.781V193.961C190.859 192.867 191.049 191.901 191.43 191.062C191.81 190.224 192.346 189.583 193.039 189.141C193.737 188.693 194.534 188.469 195.43 188.469C196.341 188.469 197.143 188.69 197.836 189.133C198.534 189.57 199.07 190.208 199.445 191.047C199.82 191.88 200.008 192.852 200.008 193.961V194.68ZM198.516 193.945C198.516 192.596 198.245 191.562 197.703 190.844C197.161 190.12 196.404 189.758 195.43 189.758C194.482 189.758 193.734 190.12 193.188 190.844C192.646 191.562 192.367 192.562 192.352 193.844V194.68C192.352 195.987 192.625 197.016 193.172 197.766C193.724 198.51 194.482 198.883 195.445 198.883C196.414 198.883 197.164 198.531 197.695 197.828C198.227 197.12 198.5 196.107 198.516 194.789V193.945Z" fill="#818181"/>
<path d="M205.609 194.93C204.323 194.56 203.385 194.107 202.797 193.57C202.214 193.029 201.922 192.362 201.922 191.57C201.922 190.674 202.279 189.935 202.992 189.352C203.711 188.763 204.643 188.469 205.789 188.469C206.57 188.469 207.266 188.62 207.875 188.922C208.49 189.224 208.964 189.641 209.297 190.172C209.635 190.703 209.805 191.284 209.805 191.914H208.297C208.297 191.227 208.078 190.688 207.641 190.297C207.203 189.901 206.586 189.703 205.789 189.703C205.049 189.703 204.471 189.867 204.055 190.195C203.643 190.518 203.438 190.969 203.438 191.547C203.438 192.01 203.633 192.404 204.023 192.727C204.419 193.044 205.089 193.336 206.031 193.602C206.979 193.867 207.719 194.161 208.25 194.484C208.786 194.802 209.182 195.174 209.438 195.602C209.698 196.029 209.828 196.531 209.828 197.109C209.828 198.031 209.469 198.771 208.75 199.328C208.031 199.88 207.07 200.156 205.867 200.156C205.086 200.156 204.357 200.008 203.68 199.711C203.003 199.409 202.479 198.997 202.109 198.477C201.745 197.956 201.562 197.365 201.562 196.703H203.07C203.07 197.391 203.323 197.935 203.828 198.336C204.339 198.732 205.018 198.93 205.867 198.93C206.659 198.93 207.266 198.768 207.688 198.445C208.109 198.122 208.32 197.682 208.32 197.125C208.32 196.568 208.125 196.138 207.734 195.836C207.344 195.529 206.635 195.227 205.609 194.93Z" fill="#818181"/>
<path d="M215.148 195.703C215.148 194.406 215.456 193.365 216.07 192.578C216.685 191.786 217.49 191.391 218.484 191.391C219.474 191.391 220.258 191.729 220.836 192.406V188H222.281V200H220.953L220.883 199.094C220.305 199.802 219.5 200.156 218.469 200.156C217.49 200.156 216.69 199.755 216.07 198.953C215.456 198.151 215.148 197.104 215.148 195.812V195.703ZM216.594 195.867C216.594 196.826 216.792 197.576 217.188 198.117C217.583 198.659 218.13 198.93 218.828 198.93C219.745 198.93 220.414 198.518 220.836 197.695V193.812C220.404 193.016 219.74 192.617 218.844 192.617C218.135 192.617 217.583 192.891 217.188 193.438C216.792 193.984 216.594 194.794 216.594 195.867Z" fill="#818181"/>
<path d="M228.039 200.156C226.893 200.156 225.961 199.781 225.242 199.031C224.523 198.276 224.164 197.268 224.164 196.008V195.742C224.164 194.904 224.323 194.156 224.641 193.5C224.964 192.839 225.411 192.323 225.984 191.953C226.562 191.578 227.188 191.391 227.859 191.391C228.958 191.391 229.812 191.753 230.422 192.477C231.031 193.201 231.336 194.237 231.336 195.586V196.188H225.609C225.63 197.021 225.872 197.695 226.336 198.211C226.805 198.721 227.398 198.977 228.117 198.977C228.628 198.977 229.06 198.872 229.414 198.664C229.768 198.456 230.078 198.18 230.344 197.836L231.227 198.523C230.518 199.612 229.456 200.156 228.039 200.156ZM227.859 192.578C227.276 192.578 226.786 192.792 226.391 193.219C225.995 193.641 225.75 194.234 225.656 195H229.891V194.891C229.849 194.156 229.651 193.589 229.297 193.188C228.943 192.781 228.464 192.578 227.859 192.578Z" fill="#818181"/>
<path d="M235.695 198.039L237.789 191.547H239.266L236.234 200H235.133L232.07 191.547H233.547L235.695 198.039Z" fill="#818181"/>
<path d="M242.227 200H240.781V191.547H242.227V200ZM240.664 189.305C240.664 189.07 240.734 188.872 240.875 188.711C241.021 188.549 241.234 188.469 241.516 188.469C241.797 188.469 242.01 188.549 242.156 188.711C242.302 188.872 242.375 189.07 242.375 189.305C242.375 189.539 242.302 189.734 242.156 189.891C242.01 190.047 241.797 190.125 241.516 190.125C241.234 190.125 241.021 190.047 240.875 189.891C240.734 189.734 240.664 189.539 240.664 189.305Z" fill="#818181"/>
<path d="M247.938 198.977C248.453 198.977 248.904 198.82 249.289 198.508C249.674 198.195 249.888 197.805 249.93 197.336H251.297C251.271 197.82 251.104 198.281 250.797 198.719C250.49 199.156 250.078 199.505 249.562 199.766C249.052 200.026 248.51 200.156 247.938 200.156C246.786 200.156 245.87 199.773 245.188 199.008C244.51 198.237 244.172 197.185 244.172 195.852V195.609C244.172 194.786 244.323 194.055 244.625 193.414C244.927 192.773 245.359 192.276 245.922 191.922C246.49 191.568 247.159 191.391 247.93 191.391C248.878 191.391 249.664 191.674 250.289 192.242C250.919 192.81 251.255 193.547 251.297 194.453H249.93C249.888 193.906 249.68 193.458 249.305 193.109C248.935 192.755 248.477 192.578 247.93 192.578C247.195 192.578 246.625 192.844 246.219 193.375C245.818 193.901 245.617 194.664 245.617 195.664V195.938C245.617 196.911 245.818 197.661 246.219 198.188C246.62 198.714 247.193 198.977 247.938 198.977Z" fill="#818181"/>
<path d="M256.43 200.156C255.284 200.156 254.352 199.781 253.633 199.031C252.914 198.276 252.555 197.268 252.555 196.008V195.742C252.555 194.904 252.714 194.156 253.031 193.5C253.354 192.839 253.802 192.323 254.375 191.953C254.953 191.578 255.578 191.391 256.25 191.391C257.349 191.391 258.203 191.753 258.812 192.477C259.422 193.201 259.727 194.237 259.727 195.586V196.188H254C254.021 197.021 254.263 197.695 254.727 198.211C255.195 198.721 255.789 198.977 256.508 198.977C257.018 198.977 257.451 198.872 257.805 198.664C258.159 198.456 258.469 198.18 258.734 197.836L259.617 198.523C258.909 199.612 257.846 200.156 256.43 200.156ZM256.25 192.578C255.667 192.578 255.177 192.792 254.781 193.219C254.385 193.641 254.141 194.234 254.047 195H258.281V194.891C258.24 194.156 258.042 193.589 257.688 193.188C257.333 192.781 256.854 192.578 256.25 192.578Z" fill="#818181"/>
<path d="M120.914 256.773H126.305V258H119.406V246.625H120.914V256.773Z" fill="#818181"/>
<path d="M129.359 258H127.914V249.547H129.359V258ZM127.797 247.305C127.797 247.07 127.867 246.872 128.008 246.711C128.154 246.549 128.367 246.469 128.648 246.469C128.93 246.469 129.143 246.549 129.289 246.711C129.435 246.872 129.508 247.07 129.508 247.305C129.508 247.539 129.435 247.734 129.289 247.891C129.143 248.047 128.93 248.125 128.648 248.125C128.367 248.125 128.154 248.047 128.008 247.891C127.867 247.734 127.797 247.539 127.797 247.305Z" fill="#818181"/>
<path d="M134.469 256.039L136.562 249.547H138.039L135.008 258H133.906L130.844 249.547H132.32L134.469 256.039Z" fill="#818181"/>
<path d="M142.828 258.156C141.682 258.156 140.75 257.781 140.031 257.031C139.312 256.276 138.953 255.268 138.953 254.008V253.742C138.953 252.904 139.112 252.156 139.43 251.5C139.753 250.839 140.201 250.323 140.773 249.953C141.352 249.578 141.977 249.391 142.648 249.391C143.747 249.391 144.602 249.753 145.211 250.477C145.82 251.201 146.125 252.237 146.125 253.586V254.188H140.398C140.419 255.021 140.661 255.695 141.125 256.211C141.594 256.721 142.188 256.977 142.906 256.977C143.417 256.977 143.849 256.872 144.203 256.664C144.557 256.456 144.867 256.18 145.133 255.836L146.016 256.523C145.307 257.612 144.245 258.156 142.828 258.156ZM142.648 250.578C142.065 250.578 141.576 250.792 141.18 251.219C140.784 251.641 140.539 252.234 140.445 253H144.68V252.891C144.638 252.156 144.44 251.589 144.086 251.188C143.732 250.781 143.253 250.578 142.648 250.578Z" fill="#818181"/>
<path d="M153.5 253.547V258H152V246.625H156.195C157.44 246.625 158.414 246.943 159.117 247.578C159.826 248.214 160.18 249.055 160.18 250.102C160.18 251.206 159.833 252.057 159.141 252.656C158.453 253.25 157.466 253.547 156.18 253.547H153.5ZM153.5 252.32H156.195C156.997 252.32 157.612 252.133 158.039 251.758C158.466 251.378 158.68 250.831 158.68 250.117C158.68 249.44 158.466 248.898 158.039 248.492C157.612 248.086 157.026 247.875 156.281 247.859H153.5V252.32Z" fill="#818181"/>
<path d="M163.312 250.57C163.953 249.784 164.786 249.391 165.812 249.391C167.599 249.391 168.5 250.398 168.516 252.414V258H167.07V252.406C167.065 251.797 166.924 251.346 166.648 251.055C166.378 250.763 165.953 250.617 165.375 250.617C164.906 250.617 164.495 250.742 164.141 250.992C163.786 251.242 163.51 251.57 163.312 251.977V258H161.867V246H163.312V250.57Z" fill="#818181"/>
<path d="M170.297 253.695C170.297 252.867 170.458 252.122 170.781 251.461C171.109 250.799 171.562 250.289 172.141 249.93C172.724 249.57 173.388 249.391 174.133 249.391C175.284 249.391 176.214 249.789 176.922 250.586C177.635 251.383 177.992 252.443 177.992 253.766V253.867C177.992 254.69 177.833 255.43 177.516 256.086C177.203 256.737 176.753 257.245 176.164 257.609C175.581 257.974 174.909 258.156 174.148 258.156C173.003 258.156 172.073 257.758 171.359 256.961C170.651 256.164 170.297 255.109 170.297 253.797V253.695ZM171.75 253.867C171.75 254.805 171.966 255.557 172.398 256.125C172.836 256.693 173.419 256.977 174.148 256.977C174.883 256.977 175.466 256.69 175.898 256.117C176.331 255.539 176.547 254.732 176.547 253.695C176.547 252.768 176.326 252.018 175.883 251.445C175.445 250.867 174.862 250.578 174.133 250.578C173.419 250.578 172.844 250.862 172.406 251.43C171.969 251.997 171.75 252.81 171.75 253.867Z" fill="#818181"/>
<path d="M181.766 247.5V249.547H183.344V250.664H181.766V255.906C181.766 256.245 181.836 256.5 181.977 256.672C182.117 256.839 182.357 256.922 182.695 256.922C182.862 256.922 183.091 256.891 183.383 256.828V258C183.003 258.104 182.633 258.156 182.273 258.156C181.628 258.156 181.141 257.961 180.812 257.57C180.484 257.18 180.32 256.625 180.32 255.906V250.664H178.781V249.547H180.32V247.5H181.766Z" fill="#818181"/>
<path d="M184.5 253.695C184.5 252.867 184.661 252.122 184.984 251.461C185.312 250.799 185.766 250.289 186.344 249.93C186.927 249.57 187.591 249.391 188.336 249.391C189.487 249.391 190.417 249.789 191.125 250.586C191.839 251.383 192.195 252.443 192.195 253.766V253.867C192.195 254.69 192.036 255.43 191.719 256.086C191.406 256.737 190.956 257.245 190.367 257.609C189.784 257.974 189.112 258.156 188.352 258.156C187.206 258.156 186.276 257.758 185.562 256.961C184.854 256.164 184.5 255.109 184.5 253.797V253.695ZM185.953 253.867C185.953 254.805 186.169 255.557 186.602 256.125C187.039 256.693 187.622 256.977 188.352 256.977C189.086 256.977 189.669 256.69 190.102 256.117C190.534 255.539 190.75 254.732 190.75 253.695C190.75 252.768 190.529 252.018 190.086 251.445C189.648 250.867 189.065 250.578 188.336 250.578C187.622 250.578 187.047 250.862 186.609 251.43C186.172 251.997 185.953 252.81 185.953 253.867Z" fill="#818181"/>
</svg>
