<svg fill="none" height="259" viewBox="0 0 321 259" width="321" xmlns="http://www.w3.org/2000/svg"><path d="m34 30h-14c-1.1 0-2 .9-2 2v14c0 1.1.9 2 2 2h14c1.1 0 2-.9 2-2v-14c0-1.1-.9-2-2-2zm0 16h-14v-14h14zm-5-7-3 3.72-2-2.72-3 4h12z" fill="#818181"/><path d="m29.25 109.26-.08-.04-.01.02c-.7-.15-1.42-.24-2.16-.24-5.52 0-10 4.48-10 10s4.48 10 10 10 10-4.48 10-10c0-4.75-3.31-8.72-7.75-9.74zm5.16 6.74h-7.99l2.71-4.7c2.4.66 4.35 2.42 5.28 4.7zm-6.31-4.92-3.98 6.92-2.72-4.7c1.4908-1.474 3.5032-2.301 5.6-2.3.37 0 .74.03 1.1.08zm-7.4 3.01 2.84 4.91 1.15 2h-5.43c-.16-.64-.26-1.31-.26-2 0-1.85.64-3.55 1.7-4.91zm-1.11 7.91h7.98l-2.71 4.7c-1.1784-.33-2.2658-.925-3.1791-1.74-.9134-.814-1.6285-1.827-2.0909-2.96zm6.31 4.91 3.99-6.91 2.72 4.7c-1.4958 1.473-3.5107 2.299-5.61 2.3-.38 0-.74-.04-1.1-.09zm7.4-3-4-6.91h5.43c.17.64.27 1.31.27 2 0 1.85-.64 3.55-1.7 4.91z" fill="#818181"/><path d="m19 198h2v3h12v-3h2v3c0 1.1-.9 2-2 2h-12c-1.1 0-2-.9-2-2zm4.41-4.59 2.59-2.58v8.17h2v-8.17l2.59 2.59 1.41-1.42-5-5-5 5z" fill="#818181"/><path d="m.5 16c0-8.56041 6.93959-15.5 15.5-15.5h289c8.56 0 15.5 6.93959 15.5 15.5v202c0 8.56-6.94 15.5-15.5 15.5h-289c-8.5604 0-15.5-6.94-15.5-15.5z" stroke="#818181"/><g fill="#818181"><path d="m57.9297 34h-1.5v-11.375h1.5z"/><path d="m62.6172 22.625 3.7187 9.2812 3.7188-9.2812h1.9453v11.375h-1.5v-4.4297l.1406-4.7812-3.7344 9.2109h-1.1484l-3.7266-9.1875.1485 4.7578v4.4297h-1.5v-11.375z"/><path d="m83.0469 32.5078c-.3854.5521-.9245.9662-1.6172 1.2422-.6875.2708-1.4896.4062-2.4063.4062-.927 0-1.75-.2161-2.4687-.6484-.7188-.4375-1.2761-1.0573-1.6719-1.8594-.3906-.802-.5911-1.7317-.6016-2.789v-.9922c0-1.7136.3985-3.0417 1.1954-3.9844.802-.9427 1.927-1.414 3.375-1.414 1.1875 0 2.1432.3046 2.8672.914.7239.6042 1.1666 1.4636 1.3281 2.5781h-1.5c-.2813-1.5052-1.1771-2.2578-2.6875-2.2578-1.0052 0-1.7683.3542-2.2891 1.0625-.5156.7032-.776 1.724-.7812 3.0625v.9297c0 1.2761.2916 2.2917.875 3.0469.5833.75 1.3724 1.125 2.3671 1.125.5626 0 1.0547-.0625 1.4766-.1875s.7708-.336 1.0469-.6328v-2.5547h-2.6328v-1.2188h4.125z"/><path d="m91.4219 35.1797h-7.1563v-1.1797h7.1563z"/><path d="m99.5312 29.1484c0 1.6927-.289 2.9506-.8671 3.7735-.5782.8229-1.4818 1.2343-2.711 1.2343-1.2135 0-2.112-.401-2.6953-1.2031-.5833-.8073-.8854-2.0104-.9062-3.6093v-1.9297c0-1.6719.289-2.9141.8672-3.7266.5781-.8125 1.4843-1.2187 2.7187-1.2187 1.224 0 2.125.3932 2.7031 1.1796.5782.7813.875 1.9896.8906 3.625zm-1.4453-1.9765c0-1.224-.1718-2.1146-.5156-2.6719-.3437-.5625-.888-.8438-1.6328-.8438-.7396 0-1.2786.2787-1.6172.836-.3385.5573-.513 1.414-.5234 2.5703v2.3125c0 1.2292.1771 2.138.5312 2.7266.3594.5833.9011.875 1.625.875.7136 0 1.2422-.2761 1.586-.8282.3489-.552.5312-1.4218.5468-2.6093z"/><path d="m107.484 30.1797h1.578v1.1797h-1.578v2.6406h-1.453v-2.6406h-5.179v-.8516l5.093-7.8828h1.539zm-4.992 0h3.539v-5.5781l-.172.3125z"/><path d="m115.117 34h-1.453v-9.6328l-2.914 1.0703v-1.3125l4.141-1.5547h.226z"/><path d="m124.891 29c-.302.3594-.664.6484-1.086.8672-.417.2187-.875.3281-1.375.3281-.657 0-1.229-.1614-1.719-.4844-.484-.3229-.859-.776-1.125-1.3593-.266-.5886-.398-1.237-.398-1.9454 0-.7604.143-1.4453.429-2.0546.292-.6094.703-1.0756 1.235-1.3985.531-.3229 1.151-.4843 1.859-.4843 1.125 0 2.01.4218 2.656 1.2656.651.8385.977 1.9844.977 3.4375v.4219c0 2.2135-.438 3.8307-1.313 4.8515-.875 1.0156-2.195 1.5365-3.961 1.5625h-.281v-1.2187h.305c1.192-.0209 2.109-.3308 2.75-.9297.64-.6042.989-1.5573 1.047-2.8594zm-2.227 0c.484 0 .93-.1484 1.336-.4453.411-.2969.711-.6641.898-1.1016v-.5781c0-.9479-.205-1.7188-.617-2.3125-.411-.5937-.932-.8906-1.562-.8906-.636 0-1.146.2448-1.531.7343-.386.4844-.579 1.125-.579 1.9219 0 .7761.185 1.4167.555 1.9219.375.5.875.75 1.5.75z"/><path d="m128.516 33.2422c0-.25.073-.4583.218-.625.151-.1667.375-.25.672-.25s.521.0833.672.25c.156.1667.234.375.234.625 0 .2396-.078.4401-.234.6016-.151.1614-.375.2421-.672.2421s-.521-.0807-.672-.2421c-.145-.1615-.218-.362-.218-.6016z"/><path d="m141.672 34h-1.508v-5.2578h-5.734v5.2578h-1.5v-11.375h1.5v4.8906h5.734v-4.8906h1.508z"/><path d="m150.766 28.7422h-4.93v4.0312h5.726v1.2266h-7.226v-11.375h7.148v1.2344h-5.648v3.6562h4.93z"/><path d="m155.039 34h-1.5v-11.375h1.5z"/><path d="m166.156 30.3906c-.14 1.2032-.586 2.1328-1.336 2.7891-.744.651-1.737.9765-2.976.9765-1.344 0-2.422-.4817-3.235-1.4453-.807-.9635-1.211-2.2526-1.211-3.8671v-1.0938c0-1.0573.188-1.987.563-2.7891.38-.802.917-1.4166 1.609-1.8437.693-.4323 1.495-.6484 2.407-.6484 1.208 0 2.177.3385 2.906 1.0156.729.6718 1.153 1.6041 1.273 2.7968h-1.508c-.13-.9062-.414-1.5624-.851-1.9687-.432-.4063-1.039-.6094-1.82-.6094-.959 0-1.711.3542-2.258 1.0625-.542.7084-.813 1.7162-.813 3.0235v1.1015c0 1.2344.258 2.2162.774 2.9453.515.7292 1.237 1.0938 2.164 1.0938.833 0 1.471-.1875 1.914-.5625.448-.3802.745-1.0391.89-1.9766z"/><path d="m59.9834 56h-1.2715v-8.4287l-2.5498.9365v-1.1484l3.6231-1.3604h.1982z"/><path d="m70.21 56h-6.5215v-.9092l3.4453-3.8281c.5104-.5788.8613-1.0482 1.0527-1.4082.196-.3646.294-.7406.294-1.1279 0-.5196-.1573-.9457-.4717-1.2784-.3145-.3326-.7337-.499-1.2578-.499-.6289 0-1.1188.18-1.4698.5401-.3463.3554-.5195.8522-.5195 1.4902h-1.2646c0-.916.2939-1.6566.8818-2.2217.5925-.5651 1.3831-.8476 2.3721-.8476.9251 0 1.6566.2438 2.1943.7314.5378.4831.8067 1.1279.8067 1.9346 0 .9798-.6244 2.1465-1.8731 3.5l-2.666 2.8916h4.9971z"/><path d="m71.707 55.3369c0-.2187.0638-.401.1914-.5469.1322-.1458.3282-.2187.5879-.2187.2598 0 .4558.0729.5879.2187.1367.1459.2051.3282.2051.5469 0 .2096-.0684.3851-.2051.5264-.1321.1413-.3281.2119-.5879.2119-.2597 0-.4557-.0706-.5879-.2119-.1276-.1413-.1914-.3168-.1914-.5264z"/><path d="m81.7627 56h-6.5215v-.9092l3.4453-3.8281c.5104-.5788.8614-1.0482 1.0528-1.4082.1959-.3646.2939-.7406.2939-1.1279 0-.5196-.1572-.9457-.4717-1.2784-.3144-.3326-.7337-.499-1.2578-.499-.6289 0-1.1188.18-1.4697.5401-.3464.3554-.5195.8522-.5195 1.4902h-1.2647c0-.916.294-1.6566.8818-2.2217.5925-.5651 1.3832-.8476 2.3721-.8476.9251 0 1.6566.2438 2.1943.7314.5378.4831.8067 1.1279.8067 1.9346 0 .9798-.6244 2.1465-1.8731 3.5l-2.666 2.8916h4.9971z"/><path d="m88.5986 46.0469 3.2539 8.1211 3.2539-8.1211h1.7022v9.9531h-1.3125v-3.876l.123-4.1836-3.2675 8.0596h-1.0049l-3.2608-8.0391.1299 4.1631v3.876h-1.3125v-9.9531z"/><path d="m100.438 52.1035v3.8965h-1.312v-9.9531h3.671c1.089 0 1.941.278 2.557.834.619.5559.929 1.292.929 2.208 0 .9661-.303 1.7112-.909 2.2353-.602.5196-1.465.7793-2.591.7793zm0-1.0732h2.359c.702 0 1.239-.1641 1.613-.4922.374-.3327.561-.8112.561-1.4356 0-.5924-.187-1.0664-.561-1.4218-.374-.3555-.886-.5401-1.538-.5537h-2.434z"/><path d="m123.359 50.4082h.951c.597-.0091 1.066-.1663 1.408-.4717.342-.3053.512-.7177.512-1.2373 0-1.1666-.581-1.75-1.743-1.75-.547 0-.984.1572-1.312.4717-.324.3099-.486.7223-.486 1.2373h-1.264c0-.7884.287-1.4424.861-1.9619.579-.5241 1.313-.7861 2.201-.7861.939 0 1.675.2483 2.208.7451.534.4967.8 1.1871.8 2.0713 0 .4329-.141.8522-.424 1.2578-.278.4056-.658.7086-1.141.9092.547.1731.968.4602 1.264.8613.301.401.452.8909.452 1.4697 0 .8932-.292 1.6019-.875 2.126-.584.5241-1.343.7861-2.277.7861s-1.695-.2529-2.283-.7588c-.583-.5058-.875-1.1735-.875-2.0029h1.271c0 .5241.171.9434.513 1.2578.342.3145.8.4717 1.374.4717.611 0 1.078-.1595 1.402-.4785.323-.319.485-.777.485-1.374 0-.5788-.178-1.0232-.533-1.3331-.356-.3099-.869-.4694-1.538-.4785h-.951z"/><path d="m135.623 51.7549c0 1.4811-.253 2.5817-.759 3.3017-.506.7201-1.296 1.0801-2.372 1.0801-1.062 0-1.848-.3509-2.358-1.0527-.511-.7064-.775-1.7591-.793-3.1582v-1.6885c0-1.4629.253-2.5498.759-3.2607.505-.711 1.298-1.0664 2.379-1.0664 1.07 0 1.859.344 2.365 1.0322.506.6836.765 1.7409.779 3.1719zm-1.265-1.7295c0-1.071-.15-1.8503-.451-2.3379-.301-.4922-.777-.7383-1.428-.7383-.648 0-1.119.2438-1.416.7315-.296.4876-.448 1.2373-.458 2.249v2.0234c0 1.0755.155 1.8708.465 2.3858.315.5104.789.7656 1.422.7656.625 0 1.087-.2415 1.388-.7246.305-.4831.465-1.2442.478-2.2832z"/><path d="m143.765 56h-6.522v-.9092l3.445-3.8281c.511-.5788.862-1.0482 1.053-1.4082.196-.3646.294-.7406.294-1.1279 0-.5196-.157-.9457-.472-1.2784-.314-.3326-.733-.499-1.257-.499-.629 0-1.119.18-1.47.5401-.346.3554-.52.8522-.52 1.4902h-1.264c0-.916.294-1.6566.882-2.2217.592-.5651 1.383-.8476 2.372-.8476.925 0 1.656.2438 2.194.7314.538.4831.807 1.1279.807 1.9346 0 .9798-.625 2.1465-1.873 3.5l-2.666 2.8916h4.997z"/><path d="m150.443 52.6572h1.381v1.0323h-1.381v2.3105h-1.271v-2.3105h-4.532v-.7452l4.457-6.8974h1.346zm-4.368 0h3.097v-4.8808l-.151.2734z"/><path d="m159.05 51.3037 1.64-2.7002h1.477l-2.42 3.6572 2.495 3.7393h-1.463l-1.709-2.7686-1.709 2.7686h-1.469l2.495-3.7393-2.42-3.6572h1.463z"/><path d="m172.195 52.6572h1.381v1.0323h-1.381v2.3105h-1.271v-2.3105h-4.532v-.7452l4.457-6.8974h1.346zm-4.368 0h3.097v-4.8808l-.151.2734z"/><path d="m180.959 51.7549c0 1.4811-.253 2.5817-.759 3.3017-.506.7201-1.296 1.0801-2.372 1.0801-1.062 0-1.848-.3509-2.358-1.0527-.511-.7064-.775-1.7591-.793-3.1582v-1.6885c0-1.4629.253-2.5498.759-3.2607.505-.711 1.298-1.0664 2.378-1.0664 1.071 0 1.86.344 2.366 1.0322.506.6836.765 1.7409.779 3.1719zm-1.265-1.7295c0-1.071-.15-1.8503-.451-2.3379-.301-.4922-.777-.7383-1.429-.7383-.647 0-1.118.2438-1.415.7315-.296.4876-.448 1.2373-.458 2.249v2.0234c0 1.0755.155 1.8708.465 2.3858.315.5104.789.7656 1.422.7656.624 0 1.087-.2415 1.388-.7246.305-.4831.465-1.2442.478-2.2832z"/><path d="m184.418 50.4082h.95c.597-.0091 1.067-.1663 1.408-.4717.342-.3053.513-.7177.513-1.2373 0-1.1666-.581-1.75-1.743-1.75-.547 0-.984.1572-1.313.4717-.323.3099-.485.7223-.485 1.2373h-1.265c0-.7884.288-1.4424.862-1.9619.579-.5241 1.312-.7861 2.201-.7861.939 0 1.675.2483 2.208.7451.533.4967.8 1.1871.8 2.0713 0 .4329-.142.8522-.424 1.2578-.278.4056-.659.7086-1.142.9092.547.1731.969.4602 1.265.8613.301.401.451.8909.451 1.4697 0 .8932-.292 1.6019-.875 2.126s-1.342.7861-2.276.7861c-.935 0-1.696-.2529-2.283-.7588-.584-.5058-.875-1.1735-.875-2.0029h1.271c0 .5241.171.9434.513 1.2578.342.3145.8.4717 1.374.4717.61 0 1.078-.1595 1.401-.4785.324-.319.485-.777.485-1.374 0-.5788-.177-1.0232-.533-1.3331-.355-.3099-.868-.4694-1.538-.4785h-.95z"/><path d="m196.962 56h-6.522v-.9092l3.446-3.8281c.51-.5788.861-1.0482 1.052-1.4082.196-.3646.294-.7406.294-1.1279 0-.5196-.157-.9457-.471-1.2784-.315-.3326-.734-.499-1.258-.499-.629 0-1.119.18-1.47.5401-.346.3554-.519.8522-.519 1.4902h-1.265c0-.916.294-1.6566.882-2.2217.592-.5651 1.383-.8476 2.372-.8476.925 0 1.657.2438 2.194.7314.538.4831.807 1.1279.807 1.9346 0 .9798-.624 2.1465-1.873 3.5l-2.666 2.8916h4.997z"/><path d="m218.618 46.7578-4.122 9.2422h-1.326l4.108-8.9141h-5.386v-1.039h6.726z"/><path d="m220.211 55.3369c0-.2187.064-.401.191-.5469.133-.1458.328-.2187.588-.2187s.456.0729.588.2187c.137.1459.205.3282.205.5469 0 .2096-.068.3851-.205.5264-.132.1413-.328.2119-.588.2119s-.455-.0706-.588-.2119c-.127-.1413-.191-.3168-.191-.5264z"/><path d="m225.584 50.4082h.95c.597-.0091 1.067-.1663 1.408-.4717.342-.3053.513-.7177.513-1.2373 0-1.1666-.581-1.75-1.743-1.75-.547 0-.984.1572-1.313.4717-.323.3099-.485.7223-.485 1.2373h-1.265c0-.7884.288-1.4424.862-1.9619.579-.5241 1.312-.7861 2.201-.7861.939 0 1.675.2483 2.208.7451.533.4967.8 1.1871.8 2.0713 0 .4329-.142.8522-.424 1.2578-.278.4056-.659.7086-1.142.9092.547.1731.969.4602 1.265.8613.301.401.451.8909.451 1.4697 0 .8932-.292 1.6019-.875 2.126s-1.342.7861-2.276.7861-1.696-.2529-2.283-.7588c-.584-.5058-.875-1.1735-.875-2.0029h1.271c0 .5241.171.9434.513 1.2578.342.3145.8.4717 1.374.4717.61 0 1.078-.1595 1.401-.4785.324-.319.485-.777.485-1.374 0-.5788-.177-1.0232-.533-1.3331-.355-.3099-.868-.4694-1.538-.4785h-.95z"/><path d="m237.103 46.0469 3.253 8.1211 3.254-8.1211h1.702v9.9531h-1.312v-3.876l.123-4.1836-3.268 8.0596h-1.004l-3.261-8.0391.13 4.1631v3.876h-1.313v-9.9531z"/><path d="m247.63 56v-9.9531h3.254c1.08 0 1.891.2233 2.433.6699.547.4466.821 1.1074.821 1.9824 0 .4649-.132.8773-.397 1.2373-.264.3555-.624.6312-1.08.8272.538.1504.962.4375 1.272.8613.314.4193.471.9206.471 1.5039 0 .8932-.289 1.5951-.868 2.1055s-1.397.7656-2.454.7656zm1.312-4.6553v3.5821h2.167c.611 0 1.092-.1573 1.443-.4717.355-.319.533-.7565.533-1.3125 0-1.1986-.652-1.7979-1.955-1.7979zm0-1.0527h1.983c.574 0 1.032-.1436 1.374-.4307.346-.2871.519-.6767.519-1.1689 0-.5469-.159-.9434-.478-1.1895-.319-.2506-.805-.3759-1.456-.3759h-1.942z"/><path d="m62.6016 110.031h-4.7657l-1.0703 2.969h-1.5468l4.3437-11.375h1.3125l4.3516 11.375h-1.5391zm-4.3125-1.234h3.8671l-1.9374-5.32z"/><path d="m73.6719 108.867c0 1.287-.2943 2.323-.8828 3.11-.5886.786-1.3855 1.179-2.3907 1.179-1.026 0-1.8333-.325-2.4218-.976v4.07h-1.4454v-11.703h1.3204l.0703.937c.5885-.729 1.4062-1.093 2.4531-1.093 1.0156 0 1.8177.382 2.4062 1.148.5938.766.8907 1.831.8907 3.195zm-1.4453-.164c0-.953-.2032-1.706-.6094-2.258-.4063-.552-.9636-.828-1.6719-.828-.875 0-1.5312.388-1.9687 1.164v4.039c.4323.771 1.0937 1.157 1.9843 1.157.6927 0 1.2422-.274 1.6485-.821.4114-.552.6172-1.37.6172-2.453z"/><path d="m82.6562 108.867c0 1.287-.2942 2.323-.8828 3.11-.5885.786-1.3854 1.179-2.3906 1.179-1.026 0-1.8333-.325-2.4219-.976v4.07h-1.4453v-11.703h1.3203l.0703.937c.5886-.729 1.4063-1.093 2.4532-1.093 1.0156 0 1.8177.382 2.4062 1.148.5938.766.8906 1.831.8906 3.195zm-1.4453-.164c0-.953-.2031-1.706-.6093-2.258-.4063-.552-.9636-.828-1.6719-.828-.875 0-1.5313.388-1.9688 1.164v4.039c.4323.771 1.0938 1.157 1.9844 1.157.6927 0 1.2422-.274 1.6485-.821.4114-.552.6171-1.37.6171-2.453z"/><path d="m86.0703 113h-1.4453v-12h1.4453z"/><path d="m91.8984 113.156c-1.1458 0-2.0781-.375-2.7968-1.125-.7188-.755-1.0782-1.763-1.0782-3.023v-.266c0-.838.1589-1.586.4766-2.242.3229-.661.7708-1.177 1.3438-1.547.5781-.375 1.2031-.562 1.875-.562 1.0989 0 1.9531.362 2.5624 1.086.6094.724.9141 1.76.9141 3.109v.602h-5.7265c.0208.833.263 1.507.7265 2.023.4688.51 1.0625.766 1.7813.766.5104 0 .9427-.105 1.2968-.313.3542-.208.6641-.484.9297-.828l.8828.687c-.7083 1.089-1.7708 1.633-3.1875 1.633zm-.1796-7.578c-.5834 0-1.073.214-1.4688.641-.3958.422-.6406 1.015-.7344 1.781h4.2344v-.109c-.0417-.735-.2396-1.302-.5938-1.703-.3541-.407-.8333-.61-1.4374-.61z"/><path d="m102.414 113h-1.445v-8.453h1.445zm-1.562-10.695c0-.235.07-.433.21-.594.146-.162.36-.242.641-.242s.495.08.641.242c.146.161.218.359.218.594 0 .234-.072.429-.218.586-.146.156-.36.234-.641.234s-.495-.078-.641-.234c-.14-.157-.21-.352-.21-.586z"/><path d="m106.461 108.547v4.453h-1.5v-11.375h4.195c1.245 0 2.219.318 2.922.953.708.636 1.063 1.477 1.063 2.524 0 1.104-.347 1.955-1.039 2.554-.688.594-1.675.891-2.961.891zm0-1.227h2.695c.802 0 1.417-.187 1.844-.562.427-.38.641-.927.641-1.641 0-.677-.214-1.219-.641-1.625s-1.013-.617-1.758-.633h-2.781z"/><path d="m116.273 105.57c.641-.786 1.474-1.179 2.5-1.179 1.787 0 2.688 1.007 2.704 3.023v5.586h-1.446v-5.594c-.005-.609-.146-1.06-.422-1.351-.27-.292-.695-.438-1.273-.438-.469 0-.88.125-1.234.375-.355.25-.631.578-.829.985v6.023h-1.445v-12h1.445z"/><path d="m123.258 108.695c0-.828.161-1.573.484-2.234.328-.662.781-1.172 1.36-1.531.583-.36 1.247-.539 1.992-.539 1.151 0 2.08.398 2.789 1.195.713.797 1.07 1.857 1.07 3.18v.101c0 .823-.159 1.563-.476 2.219-.313.651-.763 1.159-1.352 1.523-.583.365-1.255.547-2.016.547-1.145 0-2.075-.398-2.789-1.195-.708-.797-1.062-1.852-1.062-3.164zm1.453.172c0 .938.216 1.69.648 2.258.438.568 1.021.852 1.75.852.735 0 1.318-.287 1.75-.86.433-.578.649-1.385.649-2.422 0-.927-.222-1.677-.664-2.25-.438-.578-1.021-.867-1.75-.867-.714 0-1.289.284-1.727.852-.437.567-.656 1.38-.656 2.437z"/><path d="m134.133 104.547.047 1.062c.646-.812 1.489-1.218 2.531-1.218 1.786 0 2.687 1.007 2.703 3.023v5.586h-1.445v-5.594c-.005-.609-.146-1.06-.422-1.351-.271-.292-.695-.438-1.274-.438-.468 0-.88.125-1.234.375s-.63.578-.828.985v6.023h-1.445v-8.453z"/><path d="m145.102 113.156c-1.146 0-2.079-.375-2.797-1.125-.719-.755-1.078-1.763-1.078-3.023v-.266c0-.838.158-1.586.476-2.242.323-.661.771-1.177 1.344-1.547.578-.375 1.203-.562 1.875-.562 1.099 0 1.953.362 2.562 1.086.61.724.914 1.76.914 3.109v.602h-5.726c.021.833.263 1.507.726 2.023.469.51 1.063.766 1.782.766.51 0 .942-.105 1.297-.313.354-.208.664-.484.929-.828l.883.687c-.708 1.089-1.771 1.633-3.187 1.633zm-.18-7.578c-.583 0-1.073.214-1.469.641-.396.422-.641 1.015-.734 1.781h4.234v-.109c-.042-.735-.239-1.302-.594-1.703-.354-.407-.833-.61-1.437-.61z"/><path d="m157.625 107.93c-1.286-.37-2.224-.823-2.813-1.36-.583-.541-.874-1.208-.874-2 0-.896.356-1.635 1.07-2.218.719-.589 1.651-.883 2.797-.883.781 0 1.476.151 2.086.453.614.302 1.088.719 1.421 1.25.339.531.508 1.112.508 1.742h-1.508c0-.687-.218-1.226-.656-1.617-.437-.396-1.054-.594-1.851-.594-.74 0-1.318.164-1.735.492-.411.323-.617.774-.617 1.352 0 .463.195.857.586 1.18.396.317 1.065.609 2.008.875.948.265 1.687.559 2.219.882.536.318.932.69 1.187 1.118.261.427.391.929.391 1.507 0 .922-.36 1.662-1.078 2.219-.719.552-1.68.828-2.883.828-.781 0-1.511-.148-2.188-.445-.677-.302-1.2-.714-1.57-1.234-.365-.521-.547-1.112-.547-1.774h1.508c0 .688.253 1.232.758 1.633.51.396 1.19.594 2.039.594.791 0 1.398-.162 1.82-.485s.633-.763.633-1.32-.195-.987-.586-1.289c-.391-.307-1.099-.609-2.125-.906z"/><path d="m170.203 107.742h-4.93v4.031h5.727v1.227h-7.227v-11.375h7.149v1.234h-5.649v3.657h4.93z"/><path d="m176.555 108.383c0-1.177.156-2.307.468-3.391.318-1.083.789-2.068 1.415-2.953.624-.885 1.273-1.51 1.945-1.875l.297.953c-.761.584-1.386 1.474-1.875 2.672-.485 1.198-.75 2.539-.797 4.023l-.008.665c0 2.01.367 3.755 1.102 5.234.442.885.968 1.578 1.578 2.078l-.297.883c-.693-.386-1.354-1.031-1.985-1.938-1.229-1.77-1.843-3.888-1.843-6.351z"/><path d="m189.383 113h-7.453v-1.039l3.937-4.375c.584-.662.985-1.198 1.203-1.609.224-.417.336-.847.336-1.289 0-.594-.179-1.081-.539-1.461-.359-.381-.838-.571-1.437-.571-.719 0-1.279.206-1.68.617-.396.407-.594.974-.594 1.704h-1.445c0-1.047.336-1.894 1.008-2.539.677-.646 1.58-.969 2.711-.969 1.057 0 1.893.278 2.508.836.614.552.921 1.289.921 2.211 0 1.119-.713 2.453-2.14 4l-3.047 3.304h5.711z"/><path d="m192.43 104.547.047 1.062c.645-.812 1.489-1.218 2.531-1.218 1.786 0 2.687 1.007 2.703 3.023v5.586h-1.445v-5.594c-.006-.609-.146-1.06-.422-1.351-.271-.292-.696-.438-1.274-.438-.468 0-.88.125-1.234.375s-.63.578-.828.985v6.023h-1.446v-8.453z"/><path d="m199.539 108.703c0-1.297.307-2.338.922-3.125.615-.792 1.419-1.187 2.414-1.187.99 0 1.773.338 2.352 1.015v-4.406h1.445v12h-1.328l-.071-.906c-.578.708-1.382 1.062-2.414 1.062-.979 0-1.778-.401-2.398-1.203-.615-.802-.922-1.849-.922-3.141zm1.445.164c0 .959.198 1.709.594 2.25.396.542.943.813 1.641.813.916 0 1.586-.412 2.008-1.235v-3.883c-.433-.796-1.097-1.195-1.993-1.195-.708 0-1.26.274-1.656.821-.396.546-.594 1.356-.594 2.429z"/><path d="m212.547 108.703c0-1.318.305-2.364.914-3.141.609-.781 1.417-1.171 2.422-1.171 1.031 0 1.836.364 2.414 1.093l.07-.937h1.321v8.25c0 1.094-.326 1.956-.977 2.586-.646.63-1.516.945-2.609.945-.61 0-1.206-.13-1.79-.39-.583-.261-1.028-.618-1.335-1.071l.75-.867c.619.766 1.377 1.148 2.273 1.148.703 0 1.25-.197 1.641-.593.395-.396.593-.953.593-1.672v-.727c-.578.667-1.367 1-2.367 1-.989 0-1.791-.398-2.406-1.195-.609-.797-.914-1.883-.914-3.258zm1.453.164c0 .953.195 1.703.586 2.25.391.542.937.813 1.641.813.911 0 1.58-.414 2.007-1.242v-3.86c-.442-.807-1.106-1.211-1.992-1.211-.703 0-1.252.274-1.648.821-.396.546-.594 1.356-.594 2.429z"/><path d="m225.383 113.156c-1.146 0-2.078-.375-2.797-1.125-.719-.755-1.078-1.763-1.078-3.023v-.266c0-.838.159-1.586.476-2.242.323-.661.771-1.177 1.344-1.547.578-.375 1.203-.562 1.875-.562 1.099 0 1.953.362 2.563 1.086.609.724.914 1.76.914 3.109v.602h-5.727c.021.833.263 1.507.727 2.023.468.51 1.062.766 1.781.766.51 0 .943-.105 1.297-.313s.664-.484.93-.828l.882.687c-.708 1.089-1.771 1.633-3.187 1.633zm-.18-7.578c-.583 0-1.073.214-1.469.641-.395.422-.64 1.015-.734 1.781h4.234v-.109c-.041-.735-.239-1.302-.593-1.703-.355-.407-.834-.61-1.438-.61z"/><path d="m231.727 104.547.046 1.062c.646-.812 1.49-1.218 2.532-1.218 1.786 0 2.687 1.007 2.703 3.023v5.586h-1.446v-5.594c-.005-.609-.145-1.06-.421-1.351-.271-.292-.696-.438-1.274-.438-.469 0-.88.125-1.234.375s-.63.578-.828.985v6.023h-1.446v-8.453z"/><path d="m242.695 113.156c-1.146 0-2.078-.375-2.797-1.125-.718-.755-1.078-1.763-1.078-3.023v-.266c0-.838.159-1.586.477-2.242.323-.661.771-1.177 1.344-1.547.578-.375 1.203-.562 1.875-.562 1.099 0 1.953.362 2.562 1.086.61.724.914 1.76.914 3.109v.602h-5.726c.02.833.263 1.507.726 2.023.469.51 1.063.766 1.781.766.511 0 .943-.105 1.297-.313s.664-.484.93-.828l.883.687c-.709 1.089-1.771 1.633-3.188 1.633zm-.179-7.578c-.584 0-1.073.214-1.469.641-.396.422-.641 1.015-.735 1.781h4.235v-.109c-.042-.735-.24-1.302-.594-1.703-.354-.407-.833-.61-1.437-.61z"/><path d="m251.758 105.844c-.219-.037-.456-.055-.711-.055-.948 0-1.591.404-1.93 1.211v6h-1.445v-8.453h1.406l.024.976c.474-.755 1.145-1.132 2.015-1.132.281 0 .495.036.641.109z"/><path d="m258 113c-.083-.167-.151-.464-.203-.891-.672.698-1.474 1.047-2.406 1.047-.834 0-1.519-.234-2.055-.703-.531-.474-.797-1.073-.797-1.797 0-.88.333-1.562 1-2.047.672-.489 1.615-.734 2.828-.734h1.406v-.664c0-.505-.151-.906-.453-1.203-.302-.302-.747-.453-1.336-.453-.515 0-.948.13-1.296.39-.349.261-.524.576-.524.946h-1.453c0-.422.148-.829.445-1.219.302-.396.709-.708 1.219-.938.516-.229 1.081-.343 1.695-.343.974 0 1.737.244 2.289.734.552.484.839 1.154.86 2.008v3.89c0 .776.099 1.394.297 1.852v.125zm-2.398-1.102c.453 0 .882-.117 1.289-.351.406-.235.7-.539.882-.914v-1.735h-1.132c-1.771 0-2.657.519-2.657 1.555 0 .453.151.807.454 1.063.302.255.69.382 1.164.382z"/><path d="m263.445 102.5v2.047h1.578v1.117h-1.578v5.242c0 .339.071.594.211.766.141.167.38.25.719.25.167 0 .396-.031.687-.094v1.172c-.38.104-.75.156-1.109.156-.646 0-1.133-.195-1.461-.586-.328-.39-.492-.945-.492-1.664v-5.242h-1.539v-1.117h1.539v-2.047z"/><path d="m268.289 113h-1.445v-8.453h1.445zm-1.562-10.695c0-.235.07-.433.211-.594.145-.162.359-.242.64-.242s.495.08.641.242c.146.161.219.359.219.594 0 .234-.073.429-.219.586-.146.156-.36.234-.641.234s-.495-.078-.64-.234c-.141-.157-.211-.352-.211-.586z"/><path d="m270.227 108.695c0-.828.161-1.573.484-2.234.328-.662.781-1.172 1.359-1.531.584-.36 1.248-.539 1.992-.539 1.152 0 2.081.398 2.79 1.195.713.797 1.07 1.857 1.07 3.18v.101c0 .823-.159 1.563-.477 2.219-.312.651-.763 1.159-1.351 1.523-.584.365-1.255.547-2.016.547-1.146 0-2.075-.398-2.789-1.195-.708-.797-1.062-1.852-1.062-3.164zm1.453.172c0 .938.216 1.69.648 2.258.438.568 1.021.852 1.75.852.734 0 1.318-.287 1.75-.86.432-.578.649-1.385.649-2.422 0-.927-.222-1.677-.665-2.25-.437-.578-1.02-.867-1.75-.867-.713 0-1.289.284-1.726.852-.438.567-.656 1.38-.656 2.437z"/><path d="m281.102 104.547.046 1.062c.646-.812 1.49-1.218 2.532-1.218 1.786 0 2.687 1.007 2.703 3.023v5.586h-1.445v-5.594c-.006-.609-.146-1.06-.422-1.351-.271-.292-.696-.438-1.274-.438-.469 0-.88.125-1.234.375s-.63.578-.828.985v6.023h-1.446v-8.453z"/><path d="m291.898 108.461c0 1.161-.153 2.276-.46 3.344-.303 1.062-.769 2.044-1.399 2.945-.625.901-1.281 1.542-1.969 1.922l-.304-.883c.802-.615 1.445-1.568 1.929-2.859.49-1.297.74-2.735.75-4.313v-.25c0-1.094-.114-2.109-.343-3.047-.23-.942-.55-1.786-.961-2.531-.407-.745-.865-1.325-1.375-1.742l.304-.883c.688.38 1.341 1.016 1.961 1.906.625.891 1.091 1.873 1.399 2.946.312 1.073.468 2.221.468 3.445z"/><path d="m59.1562 128.581h-1.3876v7.014c0 .761-.1915 1.349-.5743 1.763-.3828.42-.9251.629-1.6269.629-.278 0-.5309-.041-.7588-.123l.0957-1.005c.1367.06.3577.089.6631.089.2962 0 .5241-.118.6836-.355.164-.237.2461-.565.2461-.985v-7.027h-1.169v-.977h1.169v-.821c.0091-.761.2119-1.356.6084-1.784.401-.428.9684-.643 1.7021-.643.2689 0 .5947.048.9776.144l-.1504 1.005c-.1732-.046-.3965-.068-.67-.068-.7793 0-1.178.444-1.1962 1.333v.834h1.3876z"/><path d="m60.9814 135.854h-1.0869l4.1563-10.807h1.0801z"/><path d="m70.5244 135h-1.2715v-8.429l-2.5498.937v-1.149l3.6231-1.36h.1982z"/><path d="m74.3867 134.337c0-.219.0638-.401.1914-.547.1322-.146.3281-.219.5879-.219s.4557.073.5879.219c.1367.146.2051.328.2051.547 0 .21-.0684.385-.2051.526-.1322.142-.3281.212-.5879.212s-.4557-.07-.5879-.212c-.1276-.141-.1914-.316-.1914-.526z"/><path d="m83.957 127.645c0 .496-.1321.938-.3965 1.326-.2597.387-.6129.69-1.0595.909.5195.223.9297.549 1.2304.977.3054.429.4581.914.4581 1.456 0 .862-.2917 1.548-.875 2.058-.5788.511-1.3422.766-2.2901.766-.957 0-1.7249-.255-2.3037-.766-.5742-.515-.8613-1.201-.8613-2.058 0-.537.1458-1.023.4375-1.456.2962-.433.7041-.761 1.2236-.984-.442-.219-.7907-.522-1.0459-.909-.2552-.388-.3828-.827-.3828-1.319 0-.839.2689-1.504.8066-1.997.5378-.492 1.2465-.738 2.126-.738.875 0 1.5814.246 2.1192.738.5423.493.8134 1.158.8134 1.997zm-1.0322 4.641c0-.556-.1777-1.009-.5332-1.36-.3509-.351-.8112-.527-1.3809-.527-.5696 0-1.0276.174-1.374.52-.3418.346-.5127.802-.5127 1.367s.1664 1.01.499 1.333c.3373.324.8044.485 1.4014.485.5925 0 1.0573-.161 1.3945-.485.3373-.328.5059-.772.5059-1.333zm-1.9004-6.337c-.4967 0-.9001.155-1.2099.465-.3054.305-.4581.722-.4581 1.251 0 .506.1504.916.4512 1.231.3054.309.711.464 1.2168.464.5059 0 .9092-.155 1.21-.464.3053-.315.458-.725.458-1.231s-.1572-.918-.4717-1.237-.7132-.479-1.1963-.479z"/><path d="m103.829 135h-1.271v-8.429l-2.55.937v-1.149l3.623-1.36h.198z"/><path d="m107.917 135.854h-1.087l4.156-10.807h1.08z"/><path d="m117.46 135h-1.272v-8.429l-2.549.937v-1.149l3.623-1.36h.198z"/><path d="m126.504 131.657h1.381v1.032h-1.381v2.311h-1.272v-2.311h-4.532v-.745l4.457-6.897h1.347zm-4.368 0h3.096v-4.881l-.15.274z"/><path d="m141.283 129.408h.95c.597-.009 1.067-.166 1.409-.471.341-.306.512-.718.512-1.238 0-1.166-.581-1.75-1.743-1.75-.547 0-.984.157-1.312.472-.324.31-.486.722-.486 1.237h-1.264c0-.788.287-1.442.861-1.962.579-.524 1.312-.786 2.201-.786.939 0 1.675.249 2.208.745.533.497.8 1.187.8 2.072 0 .433-.141.852-.424 1.257-.278.406-.658.709-1.141.91.546.173.968.46 1.264.861.301.401.451.891.451 1.47 0 .893-.291 1.601-.875 2.126-.583.524-1.342.786-2.276.786s-1.695-.253-2.283-.759c-.584-.506-.875-1.174-.875-2.003h1.271c0 .524.171.943.513 1.258.342.314.8.471 1.374.471.611 0 1.078-.159 1.401-.478.324-.319.486-.777.486-1.374 0-.579-.178-1.023-.534-1.333-.355-.31-.868-.469-1.538-.479h-.95z"/><path d="m147.463 134.337c0-.219.064-.401.191-.547.132-.146.328-.219.588-.219s.456.073.588.219c.137.146.205.328.205.547 0 .21-.068.385-.205.526-.132.142-.328.212-.588.212s-.456-.07-.588-.212c-.127-.141-.191-.316-.191-.526z"/><path d="m155.844 130.625c-.265.314-.581.567-.95.759-.365.191-.766.287-1.204.287-.574 0-1.075-.141-1.503-.424-.424-.282-.752-.679-.985-1.189-.232-.515-.348-1.083-.348-1.703 0-.665.125-1.264.375-1.797.256-.534.616-.941 1.081-1.224.464-.283 1.007-.424 1.627-.424.984 0 1.759.369 2.324 1.108.569.733.854 1.736.854 3.007v.37c0 1.936-.383 3.351-1.148 4.245-.766.888-1.921 1.344-3.466 1.367h-.246v-1.067h.266c1.044-.018 1.846-.289 2.407-.813.56-.529.866-1.363.916-2.502zm-1.948 0c.423 0 .813-.13 1.168-.39.36-.259.623-.581.787-.964v-.505c0-.83-.18-1.504-.54-2.024-.36-.519-.816-.779-1.368-.779-.556 0-1.002.214-1.339.642-.338.424-.506.985-.506 1.682 0 .679.161 1.24.485 1.682.328.437.766.656 1.313.656z"/><path d="m163.705 130.625c-.264.314-.581.567-.95.759-.365.191-.766.287-1.203.287-.574 0-1.076-.141-1.504-.424-.424-.282-.752-.679-.985-1.189-.232-.515-.348-1.083-.348-1.703 0-.665.125-1.264.376-1.797.255-.534.615-.941 1.08-1.224s1.007-.424 1.627-.424c.984 0 1.759.369 2.324 1.108.57.733.855 1.736.855 3.007v.37c0 1.936-.383 3.351-1.149 4.245-.766.888-1.921 1.344-3.466 1.367h-.246v-1.067h.267c1.043-.018 1.846-.289 2.406-.813.561-.529.866-1.363.916-2.502zm-1.948 0c.424 0 .813-.13 1.169-.39.36-.259.622-.581.786-.964v-.505c0-.83-.18-1.504-.54-2.024-.36-.519-.816-.779-1.367-.779-.556 0-1.003.214-1.34.642-.337.424-.506.985-.506 1.682 0 .679.162 1.24.485 1.682.328.437.766.656 1.313.656z"/><path d="m174.984 127.604.035.82c.542-.638 1.273-.957 2.194-.957 1.034 0 1.738.396 2.112 1.189.246-.355.565-.642.957-.861.397-.219.864-.328 1.402-.328 1.622 0 2.447.859 2.474 2.577v4.956h-1.264v-4.881c0-.529-.121-.923-.363-1.182-.241-.265-.647-.397-1.217-.397-.469 0-.859.141-1.168.424-.31.278-.49.654-.541 1.128v4.908h-1.271v-4.847c0-1.075-.526-1.613-1.579-1.613-.83 0-1.397.353-1.702 1.06v5.4h-1.265v-7.396z"/><path d="m187.262 127.604.034.82c.542-.638 1.274-.957 2.194-.957 1.035 0 1.739.396 2.113 1.189.246-.355.565-.642.957-.861.396-.219.863-.328 1.401-.328 1.622 0 2.447.859 2.475 2.577v4.956h-1.265v-4.881c0-.529-.121-.923-.362-1.182-.242-.265-.648-.397-1.217-.397-.47 0-.859.141-1.169.424-.31.278-.49.654-.54 1.128v4.908h-1.272v-4.847c0-1.075-.526-1.613-1.579-1.613-.829 0-1.397.353-1.702 1.06v5.4h-1.265v-7.396z"/><path d="m210.374 135h-1.312v-9.953h1.312z"/><path d="m215.713 130.563c-1.126-.323-1.946-.72-2.461-1.189-.51-.474-.766-1.057-.766-1.75 0-.784.313-1.431.937-1.941.629-.515 1.445-.773 2.447-.773.684 0 1.292.132 1.825.397.538.264.953.629 1.244 1.093.297.465.445.973.445 1.525h-1.32c0-.602-.191-1.073-.574-1.415-.383-.347-.923-.52-1.62-.52-.647 0-1.153.144-1.517.431-.36.282-.541.677-.541 1.183 0 .405.171.749.513 1.032.347.278.932.533 1.757.765.829.233 1.477.49 1.941.773.47.278.816.604 1.039.977.228.374.342.814.342 1.32 0 .806-.314 1.453-.943 1.941-.629.483-1.47.725-2.523.725-.683 0-1.321-.13-1.914-.39-.592-.264-1.05-.624-1.374-1.08-.319-.456-.478-.973-.478-1.552h1.319c0 .602.221 1.078.663 1.429.447.346 1.042.519 1.784.519.693 0 1.224-.141 1.593-.423.369-.283.554-.668.554-1.156 0-.487-.171-.863-.513-1.128-.342-.268-.961-.533-1.859-.793z"/><path d="m228.749 130.345c0 .975-.164 1.827-.492 2.556-.328.725-.793 1.279-1.395 1.661-.601.383-1.303.575-2.105.575-.784 0-1.479-.192-2.085-.575-.606-.387-1.078-.936-1.415-1.647-.333-.715-.504-1.543-.513-2.481v-.718c0-.957.166-1.803.499-2.536.333-.734.802-1.295 1.408-1.682.611-.392 1.308-.588 2.092-.588.798 0 1.5.194 2.106.581.61.383 1.08.941 1.408 1.675.328.729.492 1.579.492 2.55zm-1.306-.643c0-1.18-.237-2.085-.711-2.714-.474-.633-1.137-.95-1.989-.95-.829 0-1.483.317-1.962.95-.474.629-.718 1.504-.731 2.625v.732c0 1.144.239 2.044.718 2.7.483.652 1.146.977 1.989.977.847 0 1.504-.307 1.969-.922.464-.62.704-1.507.717-2.66z"/><path d="m236.426 127.645c0 .496-.132.938-.397 1.326-.259.387-.613.69-1.059.909.519.223.929.549 1.23.977.306.429.458.914.458 1.456 0 .862-.291 1.548-.875 2.058-.579.511-1.342.766-2.29.766-.957 0-1.725-.255-2.304-.766-.574-.515-.861-1.201-.861-2.058 0-.537.146-1.023.438-1.456.296-.433.704-.761 1.223-.984-.442-.219-.79-.522-1.046-.909-.255-.388-.382-.827-.382-1.319 0-.839.268-1.504.806-1.997.538-.492 1.247-.738 2.126-.738.875 0 1.582.246 2.119.738.543.493.814 1.158.814 1.997zm-1.032 4.641c0-.556-.178-1.009-.534-1.36-.351-.351-.811-.527-1.381-.527-.569 0-1.027.174-1.374.52-.341.346-.512.802-.512 1.367s.166 1.01.499 1.333c.337.324.804.485 1.401.485.593 0 1.057-.161 1.395-.485.337-.328.506-.772.506-1.333zm-1.901-6.337c-.497 0-.9.155-1.21.465-.305.305-.458.722-.458 1.251 0 .506.151.916.451 1.231.306.309.711.464 1.217.464s.909-.155 1.21-.464c.305-.315.458-.725.458-1.231s-.157-.918-.472-1.237c-.314-.319-.713-.479-1.196-.479z"/><path d="m244.492 130.755c0 1.481-.253 2.582-.759 3.302-.505.72-1.296 1.08-2.372 1.08-1.062 0-1.848-.351-2.358-1.053-.51-.706-.775-1.759-.793-3.158v-1.689c0-1.463.253-2.549.759-3.26s1.299-1.067 2.379-1.067c1.071 0 1.859.344 2.365 1.032.506.684.766 1.741.779 3.172zm-1.264-1.73c0-1.071-.151-1.85-.452-2.337-.3-.493-.777-.739-1.428-.739-.647 0-1.119.244-1.415.732-.297.487-.449 1.237-.458 2.249v2.023c0 1.076.155 1.871.464 2.386.315.51.789.765 1.422.765.625 0 1.087-.241 1.388-.724.305-.483.465-1.244.479-2.283z"/><path d="m252.354 130.755c0 1.481-.253 2.582-.759 3.302s-1.297 1.08-2.372 1.08c-1.062 0-1.848-.351-2.359-1.053-.51-.706-.774-1.759-.793-3.158v-1.689c0-1.463.253-2.549.759-3.26s1.299-1.067 2.379-1.067c1.071 0 1.859.344 2.365 1.032.506.684.766 1.741.78 3.172zm-1.265-1.73c0-1.071-.151-1.85-.451-2.337-.301-.493-.777-.739-1.429-.739-.647 0-1.119.244-1.415.732-.296.487-.449 1.237-.458 2.249v2.023c0 1.076.155 1.871.465 2.386.314.51.788.765 1.422.765.624 0 1.087-.241 1.387-.724.306-.483.465-1.244.479-2.283z"/><path d="m64.3281 188.625v7.734c-.0052 1.073-.3437 1.951-1.0156 2.633-.6667.682-1.5729 1.065-2.7187 1.149l-.3985.015c-1.2448 0-2.237-.336-2.9765-1.008-.7396-.671-1.1146-1.596-1.125-2.773v-7.75h1.4843v7.703c0 .823.2266 1.464.6797 1.922.4531.453 1.099.68 1.9375.68.849 0 1.4974-.227 1.9453-.68.4532-.453.6797-1.091.6797-1.914v-7.711z"/><path d="m73.6094 195.867c0 1.287-.2943 2.323-.8828 3.11-.5886.786-1.3855 1.179-2.3907 1.179-1.026 0-1.8333-.325-2.4218-.976v4.07h-1.4453v-11.703h1.3203l.0703.937c.5885-.729 1.4062-1.093 2.4531-1.093 1.0156 0 1.8177.382 2.4063 1.148.5937.766.8906 1.831.8906 3.195zm-1.4453-.164c0-.953-.2032-1.706-.6094-2.258-.4063-.552-.9636-.828-1.6719-.828-.875 0-1.5312.388-1.9687 1.164v4.039c.4323.771 1.0937 1.157 1.9843 1.157.6927 0 1.2422-.274 1.6485-.821.4114-.552.6172-1.37.6172-2.453z"/><path d="m77.0234 200h-1.4453v-12h1.4453z"/><path d="m78.9609 195.695c0-.828.1615-1.573.4844-2.234.3281-.662.7813-1.172 1.3594-1.531.5833-.36 1.2474-.539 1.9922-.539 1.151 0 2.0807.398 2.789 1.195.7136.797 1.0703 1.857 1.0703 3.18v.101c0 .823-.1588 1.563-.4765 2.219-.3125.651-.763 1.159-1.3516 1.523-.5833.365-1.2552.547-2.0156.547-1.1458 0-2.0755-.398-2.7891-1.195-.7083-.797-1.0625-1.852-1.0625-3.164zm1.4532.172c0 .938.2161 1.69.6484 2.258.4375.568 1.0208.852 1.75.852.7344 0 1.3177-.287 1.75-.86.4323-.578.6484-1.385.6484-2.422 0-.927-.2213-1.677-.664-2.25-.4375-.578-1.0209-.867-1.75-.867-.7136 0-1.2891.284-1.7266.852-.4375.567-.6562 1.38-.6562 2.437z"/><path d="m93.6875 200c-.0833-.167-.151-.464-.2031-.891-.6719.698-1.474 1.047-2.4063 1.047-.8333 0-1.5182-.234-2.0547-.703-.5312-.474-.7968-1.073-.7968-1.797 0-.88.3333-1.562 1-2.047.6718-.489 1.6145-.734 2.8281-.734h1.4062v-.664c0-.505-.151-.906-.4531-1.203-.3021-.302-.7474-.453-1.3359-.453-.5157 0-.9479.13-1.2969.39-.349.261-.5234.576-.5234.946h-1.4532c0-.422.1485-.829.4454-1.219.302-.396.7083-.708 1.2187-.938.5156-.229 1.0807-.343 1.6953-.343.974 0 1.737.244 2.2891.734.5521.484.8385 1.154.8593 2.008v3.89c0 .776.099 1.394.2969 1.852v.125zm-2.3984-1.102c.4531 0 .8828-.117 1.289-.351.4063-.235.7005-.539.8828-.914v-1.735h-1.1328c-1.7708 0-2.6562.519-2.6562 1.555 0 .453.151.807.4531 1.063.3021.255.6901.382 1.1641.382z"/><path d="m96.8203 195.703c0-1.297.3073-2.338.9219-3.125.6146-.792 1.4193-1.187 2.4138-1.187.99 0 1.774.338 2.352 1.015v-4.406h1.445v12h-1.328l-.07-.906c-.578.708-1.383 1.062-2.414 1.062-.9795 0-1.779-.401-2.3988-1.203-.6146-.802-.9219-1.849-.9219-3.141zm1.4453.164c0 .959.1979 1.709.5938 2.25.3958.542.9427.813 1.6406.813.917 0 1.586-.412 2.008-1.235v-3.883c-.432-.796-1.097-1.195-1.992-1.195-.7087 0-1.2608.274-1.6566.821-.3959.546-.5938 1.356-.5938 2.429z"/><path d="m109.711 200.156c-1.146 0-2.078-.375-2.797-1.125-.719-.755-1.078-1.763-1.078-3.023v-.266c0-.838.159-1.586.476-2.242.323-.661.771-1.177 1.344-1.547.578-.375 1.203-.562 1.875-.562 1.099 0 1.953.362 2.563 1.086.609.724.914 1.76.914 3.109v.602h-5.727c.021.833.263 1.507.727 2.023.469.51 1.062.766 1.781.766.51 0 .943-.105 1.297-.313s.664-.484.93-.828l.882.687c-.708 1.089-1.77 1.633-3.187 1.633zm-.18-7.578c-.583 0-1.073.214-1.469.641-.395.422-.64 1.015-.734 1.781h4.234v-.109c-.041-.735-.239-1.302-.593-1.703-.354-.407-.834-.61-1.438-.61z"/><path d="m114.336 195.703c0-1.297.307-2.338.922-3.125.614-.792 1.419-1.187 2.414-1.187.989 0 1.773.338 2.351 1.015v-4.406h1.446v12h-1.328l-.071-.906c-.578.708-1.382 1.062-2.414 1.062-.979 0-1.778-.401-2.398-1.203-.615-.802-.922-1.849-.922-3.141zm1.445.164c0 .959.198 1.709.594 2.25.396.542.943.813 1.641.813.916 0 1.586-.412 2.007-1.235v-3.883c-.432-.796-1.096-1.195-1.992-1.195-.708 0-1.26.274-1.656.821-.396.546-.594 1.356-.594 2.429z"/><path d="m128.398 200v-7.336h-1.336v-1.117h1.336v-.867c0-.907.243-1.607.727-2.102s1.169-.742 2.055-.742c.333 0 .664.044.992.133l-.078 1.172c-.245-.047-.505-.071-.782-.071-.468 0-.83.138-1.085.414-.256.271-.383.662-.383 1.172v.891h1.804v1.117h-1.804v7.336z"/><path d="m137.336 192.844c-.219-.037-.456-.055-.711-.055-.948 0-1.591.404-1.93 1.211v6h-1.445v-8.453h1.406l.024.976c.474-.755 1.146-1.132 2.015-1.132.282 0 .495.036.641.109z"/><path d="m138.133 195.695c0-.828.161-1.573.484-2.234.328-.662.781-1.172 1.36-1.531.583-.36 1.247-.539 1.992-.539 1.151 0 2.08.398 2.789 1.195.713.797 1.07 1.857 1.07 3.18v.101c0 .823-.159 1.563-.476 2.219-.313.651-.763 1.159-1.352 1.523-.583.365-1.255.547-2.016.547-1.145 0-2.075-.398-2.789-1.195-.708-.797-1.062-1.852-1.062-3.164zm1.453.172c0 .938.216 1.69.648 2.258.438.568 1.021.852 1.75.852.735 0 1.318-.287 1.75-.86.433-.578.649-1.385.649-2.422 0-.927-.222-1.677-.664-2.25-.438-.578-1.021-.867-1.75-.867-.714 0-1.289.284-1.727.852-.437.567-.656 1.38-.656 2.437z"/><path d="m149 191.547.039.937c.62-.729 1.456-1.093 2.508-1.093 1.182 0 1.987.453 2.414 1.359.281-.406.646-.734 1.094-.984.453-.25.987-.375 1.601-.375 1.854 0 2.797.981 2.828 2.945v5.664h-1.445v-5.578c0-.604-.138-1.055-.414-1.352-.276-.302-.74-.453-1.391-.453-.536 0-.981.162-1.336.485-.354.317-.559.747-.617 1.289v5.609h-1.453v-5.539c0-1.229-.601-1.844-1.805-1.844-.947 0-1.596.404-1.945 1.211v6.172h-1.445v-8.453z"/><path d="m170.859 200c-.083-.167-.151-.464-.203-.891-.672.698-1.474 1.047-2.406 1.047-.833 0-1.518-.234-2.055-.703-.531-.474-.797-1.073-.797-1.797 0-.88.334-1.562 1-2.047.672-.489 1.615-.734 2.829-.734h1.406v-.664c0-.505-.151-.906-.453-1.203-.302-.302-.748-.453-1.336-.453-.516 0-.948.13-1.297.39-.349.261-.524.576-.524.946h-1.453c0-.422.149-.829.446-1.219.302-.396.708-.708 1.218-.938.516-.229 1.081-.343 1.696-.343.974 0 1.737.244 2.289.734.552.484.838 1.154.859 2.008v3.89c0 .776.099 1.394.297 1.852v.125zm-2.398-1.102c.453 0 .883-.117 1.289-.351.406-.235.701-.539.883-.914v-1.735h-1.133c-1.771 0-2.656.519-2.656 1.555 0 .453.151.807.453 1.063.302.255.69.382 1.164.382z"/><path d="m175.711 191.547.047 1.062c.646-.812 1.489-1.218 2.531-1.218 1.787 0 2.688 1.007 2.703 3.023v5.586h-1.445v-5.594c-.005-.609-.146-1.06-.422-1.351-.271-.292-.695-.438-1.273-.438-.469 0-.881.125-1.235.375s-.63.578-.828.985v6.023h-1.445v-8.453z"/><path d="m188.711 200h-1.445v-8.453h1.445zm-1.563-10.695c0-.235.071-.433.211-.594.146-.162.36-.242.641-.242s.495.08.641.242c.145.161.218.359.218.594 0 .234-.073.429-.218.586-.146.156-.36.234-.641.234s-.495-.078-.641-.234c-.14-.157-.211-.352-.211-.586z"/><path d="m200.008 194.68c0 1.114-.188 2.088-.563 2.922-.375.828-.906 1.46-1.593 1.898-.688.438-1.49.656-2.407.656-.896 0-1.69-.218-2.383-.656-.692-.443-1.231-1.07-1.617-1.883-.38-.818-.575-1.763-.586-2.836v-.82c0-1.094.19-2.06.571-2.899.38-.838.916-1.479 1.609-1.921.698-.448 1.495-.672 2.391-.672.911 0 1.713.221 2.406.664.698.437 1.234 1.075 1.609 1.914.375.833.563 1.805.563 2.914zm-1.492-.735c0-1.349-.271-2.383-.813-3.101-.542-.724-1.299-1.086-2.273-1.086-.948 0-1.696.362-2.242 1.086-.542.718-.821 1.718-.836 3v.836c0 1.307.273 2.336.82 3.086.552.744 1.31 1.117 2.273 1.117.969 0 1.719-.352 2.25-1.055.532-.708.805-1.721.821-3.039z"/><path d="m205.609 194.93c-1.286-.37-2.224-.823-2.812-1.36-.583-.541-.875-1.208-.875-2 0-.896.357-1.635 1.07-2.218.719-.589 1.651-.883 2.797-.883.781 0 1.477.151 2.086.453.615.302 1.089.719 1.422 1.25.338.531.508 1.112.508 1.742h-1.508c0-.687-.219-1.226-.656-1.617-.438-.396-1.055-.594-1.852-.594-.74 0-1.318.164-1.734.492-.412.323-.617.774-.617 1.352 0 .463.195.857.585 1.18.396.317 1.066.609 2.008.875.948.265 1.688.559 2.219.882.536.318.932.69 1.188 1.118.26.427.39.929.39 1.507 0 .922-.359 1.662-1.078 2.219-.719.552-1.68.828-2.883.828-.781 0-1.51-.148-2.187-.445-.677-.302-1.201-.714-1.571-1.234-.364-.521-.547-1.112-.547-1.774h1.508c0 .688.253 1.232.758 1.633.511.396 1.19.594 2.039.594.792 0 1.399-.162 1.821-.485.421-.323.632-.763.632-1.32s-.195-.987-.586-1.289c-.39-.307-1.099-.609-2.125-.906z"/><path d="m215.148 195.703c0-1.297.308-2.338.922-3.125.615-.792 1.42-1.187 2.414-1.187.99 0 1.774.338 2.352 1.015v-4.406h1.445v12h-1.328l-.07-.906c-.578.708-1.383 1.062-2.414 1.062-.979 0-1.779-.401-2.399-1.203-.614-.802-.922-1.849-.922-3.141zm1.446.164c0 .959.198 1.709.594 2.25.395.542.942.813 1.64.813.917 0 1.586-.412 2.008-1.235v-3.883c-.432-.796-1.096-1.195-1.992-1.195-.709 0-1.261.274-1.656.821-.396.546-.594 1.356-.594 2.429z"/><path d="m228.039 200.156c-1.146 0-2.078-.375-2.797-1.125-.719-.755-1.078-1.763-1.078-3.023v-.266c0-.838.159-1.586.477-2.242.323-.661.77-1.177 1.343-1.547.578-.375 1.204-.562 1.875-.562 1.099 0 1.953.362 2.563 1.086.609.724.914 1.76.914 3.109v.602h-5.727c.021.833.263 1.507.727 2.023.469.51 1.062.766 1.781.766.511 0 .943-.105 1.297-.313s.664-.484.93-.828l.883.687c-.709 1.089-1.771 1.633-3.188 1.633zm-.18-7.578c-.583 0-1.073.214-1.468.641-.396.422-.641 1.015-.735 1.781h4.235v-.109c-.042-.735-.24-1.302-.594-1.703-.354-.407-.833-.61-1.438-.61z"/><path d="m235.695 198.039 2.094-6.492h1.477l-3.032 8.453h-1.101l-3.063-8.453h1.477z"/><path d="m242.227 200h-1.446v-8.453h1.446zm-1.563-10.695c0-.235.07-.433.211-.594.146-.162.359-.242.641-.242.281 0 .494.08.64.242.146.161.219.359.219.594 0 .234-.073.429-.219.586-.146.156-.359.234-.64.234-.282 0-.495-.078-.641-.234-.141-.157-.211-.352-.211-.586z"/><path d="m247.938 198.977c.515 0 .966-.157 1.351-.469.385-.313.599-.703.641-1.172h1.367c-.026.484-.193.945-.5 1.383-.307.437-.719.786-1.235 1.047-.51.26-1.052.39-1.624.39-1.152 0-2.068-.383-2.75-1.148-.678-.771-1.016-1.823-1.016-3.156v-.243c0-.823.151-1.554.453-2.195s.734-1.138 1.297-1.492c.568-.354 1.237-.531 2.008-.531.948 0 1.734.283 2.359.851.63.568.966 1.305 1.008 2.211h-1.367c-.042-.547-.25-.995-.625-1.344-.37-.354-.828-.531-1.375-.531-.735 0-1.305.266-1.711.797-.401.526-.602 1.289-.602 2.289v.274c0 .973.201 1.723.602 2.25.401.526.974.789 1.719.789z"/><path d="m256.43 200.156c-1.146 0-2.078-.375-2.797-1.125-.719-.755-1.078-1.763-1.078-3.023v-.266c0-.838.159-1.586.476-2.242.323-.661.771-1.177 1.344-1.547.578-.375 1.203-.562 1.875-.562 1.099 0 1.953.362 2.562 1.086.61.724.915 1.76.915 3.109v.602h-5.727c.021.833.263 1.507.727 2.023.468.51 1.062.766 1.781.766.51 0 .943-.105 1.297-.313s.664-.484.929-.828l.883.687c-.708 1.089-1.771 1.633-3.187 1.633zm-.18-7.578c-.583 0-1.073.214-1.469.641-.396.422-.64 1.015-.734 1.781h4.234v-.109c-.041-.735-.239-1.302-.593-1.703-.355-.407-.834-.61-1.438-.61z"/><path d="m120.914 256.773h5.391v1.227h-6.899v-11.375h1.508z"/><path d="m129.359 258h-1.445v-8.453h1.445zm-1.562-10.695c0-.235.07-.433.211-.594.146-.162.359-.242.64-.242.282 0 .495.08.641.242.146.161.219.359.219.594 0 .234-.073.429-.219.586-.146.156-.359.234-.641.234-.281 0-.494-.078-.64-.234-.141-.157-.211-.352-.211-.586z"/><path d="m134.469 256.039 2.093-6.492h1.477l-3.031 8.453h-1.102l-3.062-8.453h1.476z"/><path d="m142.828 258.156c-1.146 0-2.078-.375-2.797-1.125-.719-.755-1.078-1.763-1.078-3.023v-.266c0-.838.159-1.586.477-2.242.323-.661.771-1.177 1.343-1.547.579-.375 1.204-.562 1.875-.562 1.099 0 1.954.362 2.563 1.086s.914 1.76.914 3.109v.602h-5.727c.021.833.263 1.507.727 2.023.469.51 1.063.766 1.781.766.511 0 .943-.105 1.297-.313s.664-.484.93-.828l.883.687c-.709 1.089-1.771 1.633-3.188 1.633zm-.18-7.578c-.583 0-1.072.214-1.468.641-.396.422-.641 1.015-.735 1.781h4.235v-.109c-.042-.735-.24-1.302-.594-1.703-.354-.407-.833-.61-1.438-.61z"/><path d="m153.5 253.547v4.453h-1.5v-11.375h4.195c1.245 0 2.219.318 2.922.953.709.636 1.063 1.477 1.063 2.524 0 1.104-.347 1.955-1.039 2.554-.688.594-1.675.891-2.961.891zm0-1.227h2.695c.802 0 1.417-.187 1.844-.562.427-.38.641-.927.641-1.641 0-.677-.214-1.219-.641-1.625s-1.013-.617-1.758-.633h-2.781z"/><path d="m163.312 250.57c.641-.786 1.474-1.179 2.5-1.179 1.787 0 2.688 1.007 2.704 3.023v5.586h-1.446v-5.594c-.005-.609-.146-1.06-.422-1.351-.27-.292-.695-.438-1.273-.438-.469 0-.88.125-1.234.375-.355.25-.631.578-.829.985v6.023h-1.445v-12h1.445z"/><path d="m170.297 253.695c0-.828.161-1.573.484-2.234.328-.662.781-1.172 1.36-1.531.583-.36 1.247-.539 1.992-.539 1.151 0 2.081.398 2.789 1.195.713.797 1.07 1.857 1.07 3.18v.101c0 .823-.159 1.563-.476 2.219-.313.651-.763 1.159-1.352 1.523-.583.365-1.255.547-2.016.547-1.145 0-2.075-.398-2.789-1.195-.708-.797-1.062-1.852-1.062-3.164zm1.453.172c0 .938.216 1.69.648 2.258.438.568 1.021.852 1.75.852.735 0 1.318-.287 1.75-.86.433-.578.649-1.385.649-2.422 0-.927-.221-1.677-.664-2.25-.438-.578-1.021-.867-1.75-.867-.714 0-1.289.284-1.727.852-.437.567-.656 1.38-.656 2.437z"/><path d="m181.766 247.5v2.047h1.578v1.117h-1.578v5.242c0 .339.07.594.211.766.14.167.38.25.718.25.167 0 .396-.031.688-.094v1.172c-.38.104-.75.156-1.11.156-.645 0-1.132-.195-1.461-.586-.328-.39-.492-.945-.492-1.664v-5.242h-1.539v-1.117h1.539v-2.047z"/><path d="m184.5 253.695c0-.828.161-1.573.484-2.234.328-.662.782-1.172 1.36-1.531.583-.36 1.247-.539 1.992-.539 1.151 0 2.081.398 2.789 1.195.714.797 1.07 1.857 1.07 3.18v.101c0 .823-.159 1.563-.476 2.219-.313.651-.763 1.159-1.352 1.523-.583.365-1.255.547-2.015.547-1.146 0-2.076-.398-2.79-1.195-.708-.797-1.062-1.852-1.062-3.164zm1.453.172c0 .938.216 1.69.649 2.258.437.568 1.02.852 1.75.852.734 0 1.317-.287 1.75-.86.432-.578.648-1.385.648-2.422 0-.927-.221-1.677-.664-2.25-.438-.578-1.021-.867-1.75-.867-.714 0-1.289.284-1.727.852-.437.567-.656 1.38-.656 2.437z"/></g></svg>